<svg xmlns="http://www.w3.org/2000/svg" width="256" height="256"><path fill-opacity=".016" d="M0 128.004v128.004l128.25-.254 128.25-.254.254-127.75L257.008 0H0v128.004m.485.496c0 70.4.119 99.053.265 63.672.146-35.38.146-92.98 0-128C.604 29.153.485 58.1.485 128.5" fill="#1976D2" fill-rule="evenodd"/><path fill-opacity=".322" d="M114.5.602c-1.1.271-6.95 1.638-13 3.036-15.525 3.589-28.653 8.726-38.286 14.983C33.877 37.674 14.461 62.224 4.391 93L.628 104.5l-.392 24.27c-.421 26.01.05 29.944 5.231 43.73 8.476 22.549 26.546 46.803 45.169 60.626 22.052 16.367 50.75 23.603 89.82 22.647 18.409-.45 24.671-1.666 40.062-7.78 21.618-8.588 34.203-17.665 49.142-35.445 9.804-11.668 16.769-24.472 21.865-40.196 3.08-9.501 3.464-11.866 3.377-20.786l-.098-10.066-1.451 9.408c-5.09 33.02-28.947 67.179-59.853 85.696-4.902 2.938-7.45 4.201-16.5 8.18-12.295 5.407-24.046 8.129-39.763 9.21-28.293 1.947-54.769-4.596-76.237-18.841-4.675-3.102-9.031-5.868-9.68-6.146-1.896-.815-15.451-14.105-19.918-19.53-8.837-10.731-14.192-19.586-18.429-30.475-1.176-3.023-2.502-5.948-2.945-6.5-.443-.551-1.749-4.827-2.902-9.502-7.099-28.79-5.166-55.759 5.843-81.5 6.728-15.729 13.392-25.662 25.506-38.013 11.666-11.895 21.408-19.066 35.202-25.914C115.784-3.333 164.333.16 202.5 26.841c4.4 3.076 8.502 6.057 9.115 6.626 16.585 15.372 23.368 24.303 31.793 41.861 5.015 10.451 9.971 26.66 10.908 35.672.2 1.925.436-1.552.524-7.727.14-9.808-.161-12.084-2.375-18-3.406-9.101-9.68-21.055-15.184-28.927-15.914-22.766-47.336-45.738-72.412-52.939C156.388.971 153.651.687 136 .412c-10.725-.167-20.4-.082-21.5.19m-3.323 17.407c-9.723 1.362-23.725 5.758-33.781 10.606-28.138 13.566-50.884 39.404-60.02 68.179-6.818 21.475-7.168 47.332-.925 68.354 7.024 23.653 25.113 47.585 46.283 61.234 21.889 14.113 41.114 19.313 67.656 18.301 16.57-.632 24.987-2.304 38.11-7.571 53.402-21.433 83.317-78.449 69.956-133.329-1.301-5.344-3.586-12.769-5.078-16.5-2.765-6.915-10.367-20.376-14.556-25.776-2.639-3.401-16.072-16.966-19.857-20.052-11.827-9.642-27.64-17.047-46.965-21.992-7.606-1.947-31.283-2.79-40.823-1.454m13.176 5.173c.12 2.598-.312 3.315-2.353 3.901-2.379.683-2.391.722-.25.817 1.811.081 2.25.685 2.25 3.1 0 1.68-.55 3.044-1.25 3.1-.687.055-.125.417 1.25.806 2 .566 2.498 1.345 2.49 3.9-.008 2.676.366 3.194 2.309 3.194 1.276 0 2.049-.437 1.719-.972-.817-1.32 1.535-18.216 2.753-19.778.751-.963-.177-1.25-4.046-1.25-5.006 0-5.019.009-4.872 3.182m-12.54-1.499c.721.289 1.584.253 1.916-.079.332-.332-.258-.568-1.312-.525-1.165.048-1.402.285-.604.604m31.166.433c4.61 1.839 6.021 3.906 6.021 8.816 0 5.417-1.98 8.717-6.378 10.631-2.978 1.296-3.007 1.361-.622 1.419 2.918.07 17.853 4.334 20.908 5.969 1.709.915 2.092.833 2.092-.449 0-1.876 3.911-9.639 7.292-14.475l2.429-3.473-4.111-1.85c-4.522-2.035-25.751-7.741-28.428-7.641-1.104.042-.83.404.797 1.053m-44.365 1.989c-7.97 2.123-9.405 2.936-3.947 2.235 5.464-.702 7.765 1.301 7.822 6.809.037 3.572.638 4.933 3.355 7.601 1.821 1.788 4.288 3.236 5.483 3.22 1.864-.026 1.94-.167.532-.989-1.263-.737-1.807-3.271-2.358-10.97-.816-11.396-.002-10.805-10.887-7.906m-18.479 6.908c-11.117 5.259-22.99 13.749-31.948 22.845-9.901 10.055-9.312 9.336-15.295 18.642-6.354 9.884-11.587 22.016-14.596 33.841-2.175 8.543-2.594 12.465-2.638 24.659-.066 18.33 2.072 29.293 8.876 45.5 6.739 16.055 23.273 35.715 38.743 46.07l3.093 2.07 4.521-9.07c2.486-4.988 5.146-9.454 5.91-9.923 1.061-.651.599-1.321-1.956-2.834-5.166-3.06-18.434-17.146-23.178-24.606C40.629 160.846 35.952 139.248 38.845 119c1.111-7.774 7.108-27.033 9.204-29.559.997-1.201.687-1.441-1.859-1.441-2.177 0-3.238-.575-3.69-2-.406-1.278-1.513-2-3.067-2-5.748 0-8.329-7.32-4.36-12.365 2.664-3.387 8.812-3.792 9.637-.635.363 1.388 1.364 2 3.27 2 1.594 0 3.793 1.045 5.237 2.49 2.421 2.42 2.538 2.438 4.18.623 1.614-1.783 1.349-2.174-5.853-8.672C47.395 63.698 44 60.353 44 60.006 44 59.078 47.951 55 48.85 55c.425 0 1.805.962 3.067 2.138 1.813 1.689 2.468 1.858 3.118.805.526-.851.127-1.936-1.106-3.005-2.62-2.272-2.424-4.335.564-5.934 2.372-1.269 2.822-1.022 9.25 5.081 3.716 3.528 6.913 6.771 7.104 7.207.191.435.984.263 1.763-.383.893-.742 1.078-1.586.501-2.292-1.244-1.522-4.354-18.542-3.699-20.248.879-2.29 4.02-1.544 8.158 1.939 2.162 1.82 5.618 4.332 7.68 5.582 2.063 1.25 3.75 2.686 3.75 3.192 0 .505.675.918 1.5.918 1.625 0 2.034-1.552.637-2.415-.474-.294-1.419-2.683-2.098-5.309-.68-2.627-1.95-6.204-2.824-7.949-1.317-2.633-1.364-3.442-.279-4.75 1.738-2.094 1.575-2.054-5.801 1.436M139 32.059c0 1.785.417 2.802 1 2.441.55-.34 1-1.716 1-3.059 0-1.343-.45-2.441-1-2.441s-1 1.377-1 3.059m37.733.065c.679.684 1.486.991 1.793.683.308-.308-.247-.867-1.233-1.243-1.425-.542-1.54-.428-.56.56m6.017 3.597c1.787 1.695 3.25 3.759 3.25 4.588 0 2.072-5.125 11.913-6.985 13.413-.833.672-2.077 1.023-2.765.781-2.469-.87-1.174 1.033 1.891 2.778 3.044 1.732 3.166 1.726 4.55-.25.782-1.117 2.016-2.031 2.741-2.031.725 0 1.584-1.331 1.909-2.957.386-1.93 1.628-3.493 3.576-4.5 4.195-2.169 6.467-1.932 10.006 1.046 2.46 2.07 3.077 3.365 3.077 6.461 0 4.211-2.91 7.95-6.189 7.95-1.129 0-1.811.734-1.811 1.95 0 1.073-.745 2.367-1.654 2.877-1.029.575-1.41 1.564-1.008 2.613.38.988 1.141 1.382 1.84.95.656-.406 3.589-.626 6.518-.491 5.132.238 5.345.144 5.896-2.608.314-1.571 1.4-3.954 2.413-5.298 1.837-2.435 1.848-2.436 4.011-.479 1.682 1.523 2.047 2.708 1.629 5.288-.448 2.757-.25 3.262 1.158 2.961 2.122-.454 6.197 3.681 6.197 6.289 0 1.694-.715 1.948-5.483 1.948h-5.483l-2.461 4.856c-2.344 4.625-2.514 8-.536 10.644.411.55 1.973 4.825 3.471 9.5 5.665 17.687 4.343 43.333-3.075 59.651-.788 1.733-1.433 3.574-1.433 4.092 0 .517-2.646 4.901-5.879 9.742-6.673 9.992-16.284 20.128-23.439 24.719l-4.856 3.116 5.801 5.09 8.805 7.729 3.003 2.639 7.383-6.107c18.256-15.1 31.515-37.782 37.74-64.56 1.859-8.001 2.133-28.908.498-38.111-1.439-8.102-5.335-20.453-9.004-28.545-7.023-15.489-22.21-33.271-36.983-43.303-11.12-7.552-12.239-8.148-8.319-4.431m-63.937-.038c.721.289 1.584.253 1.916-.079.332-.332-.258-.568-1.312-.525-1.165.048-1.402.285-.604.604M98 45.5c0 .917.484 1.505 1.075 1.308.591-.197 1.075-.785 1.075-1.308s-.484-1.111-1.075-1.308C98.484 43.995 98 44.583 98 45.5m16.5.617c-3.3.48-9.15 1.839-13 3.021-6.063 1.861-9.74 3.556-20.042 9.236C78.094 60.229 70.793 66.187 66 70.991 49.113 87.913 40.041 111.446 41.326 135c2.086 38.261 27.514 68.898 65.174 78.526 8.422 2.153 25.866 2.519 36 .756 8.919-1.552 21.011-6.228 29-11.215 20.405-12.736 35.831-34.63 40.095-56.905 2.054-10.729 1.792-25.991-.62-36.049-5.71-23.821-22.126-44.723-43.614-55.532-16.732-8.417-34.084-11.196-52.861-8.464m-34.471 7.844c-.809.512-1.136 1.265-.726 1.675.409.41 1.505-.016 2.435-.946 1.807-1.807.726-2.269-1.709-.729M117 54.78c-1.375.227-2.984.809-3.577 1.294-.633.519-2.323.412-4.102-.259-4.049-1.528-6.114-.556-7.902 3.724-1.767 4.229-1.012 9.929 1.553 11.735.958.675 2.061 2.239 2.452 3.476.57 1.805 1.45 2.25 4.443 2.25 5.498 0 6.372 1.455 3.506 5.835-2.318 3.545-2.568 3.654-7.635 3.337-5.102-.32-5.243-.411-5.422-3.5-.454-7.822-1.544-10.714-5.155-13.691-9.536-7.86-23.578.083-21.746 12.301 1.324 8.826 4.72 11.624 14.642 12.061l3.557.157-.057 5.736c-.032 3.253-.49 5.654-1.057 5.547-2.606-.491-8.233 2.495-9.846 5.225-.972 1.646-2.079 2.986-2.461 2.98-.381-.007-1.68-1.536-2.885-3.399-1.858-2.868-2.96-3.491-7.21-4.076-10.47-1.439-16.107 2.551-16.887 11.953-.738 8.905 3.229 12.863 14.182 14.15 4.886.575 5.649.424 6.241-1.231.813-2.269 5.561-6.382 6.616-5.731.412.255.75 1.092.75 1.86 0 1.573 4.579 6.486 6.045 6.486 1.264 0 1.271-.03-1.124 4.928-1.295 2.679-1.849 5.224-1.468 6.74.558 2.225.428 2.339-1.499 1.307-1.161-.621-2.791-.868-3.622-.549-.832.319-2.709-.075-4.172-.876-1.463-.8-5.087-1.936-8.054-2.523-4.491-.889-5.797-.804-7.796.505-4.018 2.633-4.997 6.026-2.82 9.771 1.023 1.758 2.302 3.492 2.843 3.854.556.371-.606 2.513-2.675 4.93-2.012 2.35-3.649 4.979-3.639 5.843.033 2.708 5.877 11.07 7.733 11.064.961-.003 3.424-.471 5.472-1.039 3.013-.837 4.201-.722 6.219.6 3.313 2.171 12.568 2.466 13.633.435 1.331-2.538 3.675-11.254 4.39-16.328.64-4.533.793-4.738 2.437-3.25 1.012.916 3.519 1.588 5.926 1.588 3.59 0 4.171.297 4.171 2.132 0 1.173.906 3.597 2.013 5.388l2.012 3.257-2.433.611c-1.481.371-3.659-.074-5.566-1.139-3.085-1.722-3.163-1.712-5.143.691-1.486 1.803-1.947 3.648-1.765 7.071.162 3.055-.327 5.449-1.436 7.033-.925 1.321-1.682 2.906-1.682 3.524 0 1.659 3.393 4.432 5.424 4.432.972 0 3.187 1.012 4.922 2.25 2.386 1.702 4.615 2.268 9.154 2.324 3.3.04 6.816.437 7.814.881 1.035.461 2.859.332 4.25-.302 1.91-.87 2.436-1.87 2.436-4.632 0-4.26 1.173-4.551 2.643-.655.917 2.428 1.816 2.976 5.886 3.586 2.643.396 5.742 1.309 6.888 2.028 1.146.72 4.558 1.597 7.583 1.951 5.32.621 5.621.524 9.181-2.941 2.024-1.971 3.913-4.8 4.196-6.287 1.56-8.178 1.743-11.203.677-11.203-.617 0-2.053-1.578-3.19-3.507-1.138-1.928-3.148-3.777-4.467-4.108-3.019-.758-3.007-.856.536-4.319 2.947-2.881 4.393-3.079 3.39-.466-.782 2.04 3.718 5.493 6.549 5.024 1.413-.234 4.94.994 8.729 3.041 5.289 2.856 6.992 3.322 10.128 2.772 4.506-.79 8.271-2.978 8.271-4.805 0-.727.9-2.137 2-3.132 1.516-1.372 2-3.08 2-7.06 0-4.568-.471-5.816-3.622-9.595-1.992-2.39-4.58-5.02-5.75-5.845-1.17-.825-2.265-2.175-2.433-3-.48-2.362-3.482-4.143-5.945-3.526-1.238.31-2.25.106-2.25-.455 0-.56.605-1.019 1.345-1.019s2.182-.925 3.204-2.055c1.822-2.012 1.892-2.015 3.405-.155 2.298 2.824 14.308 9.065 16.046 8.338 6.425-2.689 9.5-8.403 9.5-17.652 0-5.541-2.442-9.695-7.126-12.126-2.952-1.531-7.981-1.795-8.806-.461-.302.489-1.791 1.198-3.309 1.574-1.517.377-3.731 1.592-4.919 2.701l-2.16 2.016-2.09-2.09c-1.15-1.15-2.427-2.09-2.84-2.09-.412 0-.75-2.036-.75-4.525 0-4.502.015-4.521 2.985-3.868 1.642.36 3.956 1.291 5.143 2.069 1.961 1.285 2.338 1.183 4.155-1.127 1.763-2.242 2.511-2.47 6.36-1.943 5.426.744 7.568-1.22 8.464-7.757.668-4.874-.416-7.631-6.107-15.531-3.745-5.199-6.105-6.319-13.297-6.313-5.53.006-5.849.157-10.522 5-2.651 2.747-5.238 4.995-5.75 4.995-1.462 0-1.089 2.624.569 4 .825.685 1.5 2.09 1.5 3.122 0 3.011-2.693 2.185-7.036-2.158-4.015-4.015-4.383-5.927-1.155-6.005 2.577-.063 10.191-7.418 10.191-9.845 0-1.174.641-2.114 1.441-2.114 3.1 0 2.774-3.443-.684-7.214-1.873-2.043-3.736-5.049-4.433-7.152-.562-1.697-1.354-1.804-8.721-1.173-4.457.381-8.482 1.06-8.946 1.509-.463.448-.361 1.714.226 2.812.876 1.636.73 2.086-.809 2.488-1.655.433-1.861 1.431-1.726 8.399l.152 7.907-4.797-.335c-2.95-.206-5.501-1.039-6.625-2.163-1.005-1.005-2.414-2.023-3.13-2.262-2.335-.778.087-2.816 3.361-2.827 2.283-.007 4.076-.932 6.301-3.25 2.757-2.871 3.075-3.804 2.81-8.219-.165-2.739-.802-5.147-1.416-5.352-.614-.205-1.993-1.313-3.065-2.464-1.67-1.792-3.201-2.109-10.694-2.213-4.81-.067-9.87.063-11.245.289m78 .22c0 .55.45 1 1 1s1-.45 1-1-.45-1-1-1-1 .45-1 1M60 63.592c0 .326.834 1.652 1.853 2.948 1.38 1.755 2.141 2.066 2.986 1.221.845-.845.716-1.596-.508-2.947-1.553-1.717-4.331-2.5-4.331-1.222m95.103 1.318c-1.211 1.051-1.84 2.134-1.398 2.408.817.505 5.295-2.648 5.295-3.728 0-1.149-1.723-.565-3.897 1.32m-36.758.633c-.93 2.424.368 2.862 1.609.543.774-1.447.789-2.086.05-2.086-.587 0-1.333.694-1.659 1.543m5.203-.132c1.061.777 2.28 1.195 2.707.931 1.342-.829-.277-2.342-2.505-2.342-2.081 0-2.086.034-.202 1.411m28.265-.728c.721.289 1.584.253 1.916-.079.332-.332-.258-.568-1.312-.525-1.165.048-1.402.285-.604.604m7.637 2.372c-1.599 1.767-1.658 2.198-.41 2.971 1.102.683 1.636.251 2.177-1.761.932-3.463.525-3.742-1.767-1.21M128.4 69.5c0 1.925.36 3.5.8 3.5.44 0 .8-1.575.8-3.5s-.36-3.5-.8-3.5c-.44 0-.8 1.575-.8 3.5m35.6-.239c0 1.743.672 2.681 2.206 3.083 1.214.317 2.414.37 2.667.116.253-.253-.065-.46-.706-.46-.642 0-1.167-.62-1.167-1.378 0-.757-.675-1.937-1.5-2.622-1.265-1.05-1.5-.853-1.5 1.261m-42.165-.588c-.916.242-1.945 1.17-2.287 2.061-.826 2.154 1.83 4.719 4.018 3.879.946-.363 1.435-.946 1.086-1.295-.349-.348-.15-1.218.443-1.932.592-.714.787-1.768.432-2.342-.669-1.082-.914-1.107-3.692-.371m28.154.666c-.819.638-1.609 2.061-1.756 3.161-.147 1.1-.505 3.575-.795 5.5l-.528 3.5 1.509-3.988c.83-2.193 1.978-4.144 2.551-4.335.573-.191.757-.81.408-1.374-.349-.565-.079-1.37.601-1.79.679-.42.844-1.004.367-1.299-.478-.295-1.538-.014-2.357.625m-35.303.361c-.902 1.458.172 4.35 2.432 6.55 2.421 2.356 3.634 2.239 1.479-.143-.942-1.04-2.052-3.16-2.466-4.709-.439-1.644-1.042-2.351-1.445-1.698m7.021 2.311c-.286 1.094-.16 1.989.28 1.989 1.175 0 2.067-2.848 1.083-3.457-.463-.286-1.077.374-1.363 1.468m31.293.548c0 .857.45 1.281 1 .941.55-.34 1-1.041 1-1.559s-.45-.941-1-.941-1 .702-1 1.559m8.625 2.259c-.455.725-1.457 1.077-2.226.782-.77-.296-1.399-.101-1.399.431 0 .533.9.969 2 .969 3.985 0 2.107 4.559-3.5 8.496-1.967 1.381-1.964 1.396.162.861 3.421-.861 9.338-7.192 9.338-9.991 0-1.276-.294-1.367-1.416-.435-1.127.934-1.49.806-1.774-.628-.273-1.382-.55-1.495-1.185-.485m-9.375 1.678c-2.986 3.392.705 7.669 4.75 5.504 2.511-1.344 2.505-2.08-.039-4.811-2.363-2.537-3.004-2.632-4.711-.693M153 79c0 .55 1.012.993 2.25.985 1.819-.013 1.963-.201.75-.985-1.939-1.253-3-1.253-3 0m48 1c.589 1.1 1.227 2 1.419 2 .191 0 .583-.9.871-2 .39-1.493.03-2-1.419-2-1.631 0-1.771.319-.871 2m-75.917 6.368c.23.202 3.567.598 7.417.879 4.006.293 6.144.166 5-.297-1.945-.787-13.249-1.317-12.417-.582M113 90c-.825.533-1.05.969-.5.969s1.675-.436 2.5-.969c.825-.533 1.05-.969.5-.969s-1.675.436-2.5.969m33 .423c2.786 1.679 4.977 2.117 3.45.689-.522-.488-2.075-1.182-3.45-1.541l-2.5-.654 2.5 1.506m-39.7 3.588c-2.252 1.656-4.375 3.742-4.718 4.635-.517 1.348 2.022-.595 8.868-6.787 2.148-1.942-.329-.658-4.15 2.152m64.7-.452c0 1.451-.433 2.292-1 1.941-1.282-.792-1.282 3.517 0 5.5.763 1.181.973.948.985-1.095.008-1.427.913-3.408 2.011-4.402 1.524-1.378 1.732-2.126.878-3.155-1.73-2.085-2.874-1.603-2.874 1.211M151 93c0 .55.477 1 1.059 1s.781-.45.441-1-.816-1-1.059-1-.441.45-.441 1m3.564 2.293c.376.986.935 1.541 1.243 1.233.308-.307.001-1.114-.683-1.793-.988-.98-1.102-.865-.56.56m21.007 2.633c-4.504 4.701-1.074 7.131 3.956 2.804 2.581-2.219 2.597-2.308.736-3.992-1.817-1.644-2.031-1.59-4.692 1.188m-34.321-.22c-3.013.58-2.86 1.759.251 1.938 1.539.089 2.499-.391 2.499-1.25 0-.767-.113-1.333-.25-1.258-.137.075-1.262.331-2.5.57m35.049 1.186c-.65 1.041-.929 2.144-.621 2.453.714.714 3.322-1.855 3.322-3.274 0-1.682-1.404-1.256-2.701.821m-18.245-.392c.013 1.323 2.802 4.978 3.367 4.412.243-.243-.417-1.56-1.467-2.927s-1.905-2.035-1.9-1.485M183 101.759c0 2.357-3.213 4.237-6.135 3.591-1.879-.416-2.057-.304-.865.548 2.287 1.634 6.124 1.307 7.608-.648 1.574-2.073 1.811-5.25.392-5.25-.55 0-1 .792-1 1.759m-56.504 1.62c-.99.724-1.388 1.569-.886 1.88.501.31 1.722-.028 2.711-.752.989-.723 1.388-1.569.886-1.879-.502-.31-1.722.028-2.711.751m-29.944 1.563c-.966 1.068-1.599 2.408-1.405 2.977.194.57 1.12-.304 2.056-1.942 1.982-3.462 1.803-3.746-.651-1.035M142.5 105c-.34.55-.141 1 .441 1s1.059-.45 1.059-1-.198-1-.441-1-.719.45-1.059 1m-40.5 4c-1.293.835-1.266.971.191.985.93.008 1.969-.435 2.309-.985.782-1.266-.542-1.266-2.5 0m-15 1c0 .55.45 1 1 1s1-.45 1-1-.45-1-1-1-1 .45-1 1m-22.626 2.467c-.309.807-.331 2.044-.047 2.75.349.87.541.769.594-.314.043-.879 1.092-2.086 2.329-2.683l2.25-1.085-2.281-.067c-1.255-.038-2.535.592-2.845 1.399m4.126 3.201c2.874.756 4.616 2.752 1.815 2.079-1.374-.331-2.393.015-2.744.929-.421 1.096.12 1.378 2.185 1.14 1.972-.227 2.744-.879 2.744-2.316 0-1.516-.726-2.043-3-2.179-1.793-.108-2.195.032-1 .347m74 1.332c.34.55.816 1 1.059 1s.441-.45.441-1-.477-1-1.059-1-.781.45-.441 1m14 0c.34.55.816 1 1.059 1s.441-.45.441-1-.477-1-1.059-1-.781.45-.441 1m11.658 2c0 1.375.227 1.938.504 1.25.278-.687.278-1.812 0-2.5-.277-.687-.504-.125-.504 1.25m-104.079 2.643c-.106 4.235 3.6 5.775 7.332 3.046 1.582-1.157 1.383-1.263-1.694-.904-3.084.36-3.606.079-4.523-2.439l-1.036-2.846-.079 3.143m61.734-1.96c.721.289 1.584.253 1.916-.079.332-.332-.258-.568-1.312-.525-1.165.048-1.402.285-.604.604M90 127c0 2.2.349 4 .776 4 .427 0 .605-1.8.395-4-.209-2.2-.559-4-.776-4-.217 0-.395 1.8-.395 4m40.813-3.317c.721.289 1.584.253 1.916-.079.332-.332-.258-.568-1.312-.525-1.165.048-1.402.285-.604.604M135.5 131c.34.55.816 1 1.059 1s.441-.45.441-1-.477-1-1.059-1-.781.45-.441 1m-43.421 7.583c.048 1.165.285 1.402.604.605.289-.722.253-1.585-.079-1.917-.332-.332-.568.258-.525 1.312M123 148.622c0 1.389.252 1.43 1.75.283a93.003 93.003 0 0 1 2.167-1.622c.229-.156-.559-.283-1.75-.283-1.332 0-2.167.625-2.167 1.622m-50.25.759c-2.052.91-2.462 1.507-1.614 2.355.847.847 1.522.748 2.661-.39 1.007-1.007 2.85-1.399 5.427-1.153 3.374.321 3.664.198 2.148-.911-2.131-1.557-4.957-1.525-8.622.099m13.265-.631c.009.412.434 1.412.946 2.221 1.152 1.822 2.504.682 1.694-1.428-.598-1.558-2.668-2.18-2.64-.793m-9.574 5.718c-1.859 1.406-1.825 1.47.809 1.5 3.183.037 3.461.772 1 2.64-1.52 1.154-1.541 1.333-.155 1.36.877.018 2.392-.848 3.365-1.924 1.596-1.764 1.619-2.108.227-3.5-1.919-1.919-2.792-1.932-5.246-.076m8.38 2.654c-.234 2.415-1.187 3.895-3.511 5.456-2.251 1.512-2.878 2.454-2.128 3.204s2.045-.01 4.403-2.584c2.589-2.826 3.205-4.215 2.737-6.172-.871-3.646-1.141-3.629-1.501.096M95 154.755c0 .55.675 1.56 1.5 2.245.837.694 1.5.803 1.5.245 0-.55-.675-1.56-1.5-2.245-.837-.694-1.5-.803-1.5-.245M74.5 162c-.34.55-.141 1 .441 1S76 162.55 76 162s-.198-1-.441-1-.719.45-1.059 1m29.5 1.393c0 .216.698.661 1.552.989.89.341 1.291.173.941-.393-.587-.951-2.493-1.406-2.493-.596m15.813 6.29c.721.289 1.584.253 1.916-.079.332-.332-.258-.568-1.312-.525-1.165.048-1.402.285-.604.604m4.45 1.267c-.67 1.073-2.826 2.253-4.791 2.621-2.597.487-3.474 1.115-3.213 2.3.198.896 1.008 1.474 1.8 1.285 8.693-2.074 10.244-.869 7.549 5.866-.885 2.21-1.608 4.144-1.608 4.297 0 .154 1.541.099 3.424-.12 3.211-.375 3.5-.721 4.631-5.55.664-2.832 1.653-5.711 2.198-6.399.666-.839.64-1.25-.079-1.25-.589 0-2.285-1.125-3.769-2.5-3.247-3.01-4.534-3.125-6.142-.55m9.237-.95c.34.55 1.068 1 1.618 1s.722-.45.382-1c-.34-.55-1.068-1-1.618-1s-.722.45-.382 1m13.313 4.683c.721.289 1.584.253 1.916-.079.332-.332-.258-.568-1.312-.525-1.165.048-1.402.285-.604.604m-46.785 1.783c-.669.807-1.042 1.993-.827 2.637.215.644 1.167-.016 2.118-1.466 1.815-2.771.8-3.691-1.291-1.171m51.027 1.636c.619 1.156.921 2.882.672 3.835-.362 1.382.05 1.637 2.034 1.258 1.97-.377 2.173-.652.975-1.323-.832-.465-1.797-1.977-2.143-3.359-.347-1.382-1.088-2.513-1.647-2.513-.654 0-.615.75.109 2.102m-10.351.323c-1.307.992-1.615 2.083-1.13 4.012.711 2.836 2.716 2.98 3.249.234.225-1.165-.153-1.482-1.262-1.056-1.125.432-1.416.17-1.003-.905.738-1.923 4.588-2.969 5.925-1.61.692.704.458 1.448-.733 2.328-2.441 1.803-2.184 2.844.492 1.995 1.993-.632 2.091-.529.878.933-1.471 1.772-1.189 1.991 1.324 1.027 1.177-.451 1.323-.959.546-1.895-.583-.702-.991-1.662-.907-2.133.559-3.111-.255-4.353-2.833-4.323-1.512.017-3.558.644-4.546 1.393m-35.954.237c.688.278 1.813.278 2.5 0 .688-.277.125-.504-1.25-.504s-1.937.227-1.25.504m3.231 1.861c-1.057 1.273-.995 1.42.378.893.902-.347 1.641-1.032 1.641-1.523 0-1.286-.579-1.105-2.019.63m5.716-.13c-.409 1.041-.508 2.129-.221 2.417.913.912 1.715-.583 1.333-2.482-.35-1.74-.404-1.737-1.112.065M93 180.81c0 .526.926 1.199 2.057 1.495 1.309.342 1.915.111 1.667-.634-.479-1.438-3.724-2.189-3.724-.861m42.15.858c-.083 1.193-.423 2.88-.757 3.75-.448 1.169.009 1.578 1.75 1.567 1.398-.009 1.885-.316 1.197-.754-.638-.405-1.358-2.086-1.6-3.734-.29-1.977-.491-2.259-.59-.829m-34.15.363c0 .533.675.969 1.5.969s1.5-.177 1.5-.393c0-.216-.675-.652-1.5-.969-.825-.316-1.5-.139-1.5.393m97.198 4.61c-5.237 4.338-10.261 11.032-9.591 12.777.718 1.872 2.552 2.135 2.318.332-.338-2.608.137-3.533 2.075-4.04 1.112-.29 2-1.364 2-2.416 0-2.389 1.864-4.294 4.2-4.294.99 0 1.8-.707 1.8-1.572 0-1.115.772-1.478 2.663-1.25 1.494.181 2.847-.227 3.083-.928.786-2.334-5.234-1.355-8.548 1.391M50 187c0 .55.702 1 1.559 1s1.281-.45.941-1c-.34-.55-1.041-1-1.559-1s-.941.45-.941 1m4-.541c0 1.266 3.177 5.395 4.56 5.926 2.505.961 1.449-1.79-1.615-4.211-1.62-1.279-2.945-2.051-2.945-1.715m59.667.208c-1.199 1.198-.704 1.904 1.333 1.904 1.1 0 2-.578 2-1.285 0-1.351-2.194-1.759-3.333-.619M91 188.5c0 1.03.655 1.52 1.75 1.31 2.108-.406 1.975-2.181-.197-2.633-.906-.189-1.553.362-1.553 1.323m116.647 1.516c-.328 1.641-1.202 2.984-1.942 2.984-.739 0-2.344 1.15-3.565 2.554-1.544 1.776-2.819 2.365-4.181 1.933-1.377-.437-1.959-.156-1.959.946 0 .862.765 1.567 1.7 1.567 1.259 0 1.408.292.575 1.125-.619.619-2.292 1.125-3.718 1.125-1.427 0-2.837.394-3.134.875-.298.481 1.511.875 4.018.875 3.386 0 4.559.386 4.559 1.5 0 .825.413 1.5.918 1.5.505 0 1.635.275 2.512.611 1.169.449 1.427.18.97-1.011-.474-1.234-.205-1.462 1.125-.952 1.216.467 1.61.256 1.294-.691-.538-1.613 3.104-6.123 4.332-5.364 1.547.957.879-2.323-.749-3.674-1.114-.925-1.437-2.318-1.066-4.604.671-4.136-.883-5.33-1.689-1.299m-91.897 3.376c-2.297 1.743-2.214 2.608.25 2.608 1.333 0 2-.667 2-2 0-2.337.021-2.332-2.25-.608m-69.228 1.678c.498 1.568.15 2.203-1.432 2.617-2.898.758-2.648 4.102.41 5.495 2.464 1.123 2.925 1.974 2.543 4.704-.122.88.381 1.165 1.382.781.993-.381 1.575-.061 1.575.864 0 2.15 1.541 1.793 3.226-.746 1.096-1.649 2.339-2.166 4.872-2.024 3.715.208 9.656-3.613 7.039-4.527-.998-.348-1.05-.67-.193-1.199.837-.517.512-1.755-1.137-4.337-1.269-1.987-2.675-3.632-3.124-3.656-1.245-.064.39 4.347 1.948 5.258 1.824 1.065 1.745 2.7-.131 2.7-.825 0-1.5.436-1.5.969 0 .532.675.709 1.5.393 1.846-.709 1.945.336.198 2.082-1.996 1.997-6.104 1.407-6.556-.941-.211-1.099-1.455-2.99-2.763-4.203-1.308-1.212-2.431-3.238-2.495-4.502-.086-1.694-.236-1.838-.573-.548-.561 2.145-2.17 2.281-2.949.25-.885-2.306-2.585-1.779-1.84.57M49.5 201c.34.55.816 1 1.059 1s.441-.45.441-1-.477-1-1.059-1-.781.45-.441 1m2.5 3c0 .55.45 1 1 1s1-.45 1-1-.45-1-1-1-1 .45-1 1m112.241 6.484c-3.442 1.659-6.064 3.526-5.826 4.148.238.623-.149 2.873-.859 5-.711 2.128-1.587 5.114-1.948 6.636-.618 2.613-.492 2.74 2.251 2.257 1.848-.326 3.344.014 4.106.933 2.224 2.68.727 4.97-4.469 6.838-3.587 1.289-4.074 1.647-1.728 1.271 1.798-.288 6.663-1.937 10.812-3.665 5.693-2.37 7.399-3.515 6.955-4.671-.323-.842-1.053-6.066-1.622-11.608-.568-5.543-1.119-10.094-1.223-10.116-.105-.021-3.006 1.319-6.449 2.977m-76.448.709c2.065 2.065 1.396 6.709-1.364 9.469-2.193 2.193-3.149 2.479-6.5 1.943-2.161-.346-3.929-.258-3.929.195 0 .452-.915 1.805-2.033 3.005l-2.032 2.181 6.782 3.162c12.06 5.621 17.687 7.309 31.283 9.388 14.142 2.162 28.849 1.562 39.5-1.611 2.799-.834 2.745-.865-.802-.464-2.662.301-3.965.006-4.345-.984-.514-1.338 1.712-8.872 3.774-12.775.846-1.601.534-1.765-2.838-1.5-3.477.273-3.815.071-4.105-2.452-.246-2.131-.846-2.75-2.669-2.75-3.604 0-5.515 1.034-5.515 2.985 0 .973-.675 2.33-1.5 3.015s-1.5 1.804-1.5 2.488c0 .683-.933 2.428-2.073 3.877L125.855 233h2.872c3.304 0 5.356 1.62 4.588 3.622-.332.863.164 1.384 1.328 1.393 1.565.013 1.621.168.357.985-.825.533-5.887.976-11.25.985-11.551.018-11.703-.219-5.755-8.977l3.994-5.882-3.244-.313c-2.852-.275-3.283-.707-3.558-3.563-.287-2.975-.604-3.25-3.75-3.25-1.891 0-3.767-.113-4.17-.25s-1.04 1.325-1.416 3.25c-1.648 8.453-3.743 15.315-4.893 16.026-.685.423-2.484.338-3.999-.19l-2.753-.96 1.348-5.688c.741-3.128 2.001-7.825 2.799-10.438.798-2.613 1.356-4.75 1.239-4.75-.117 0-3.091-1.128-6.609-2.507-3.518-1.378-5.853-1.963-5.19-1.3m92.803 14.418c-.453 1.18-.192 1.448.974 1 .877-.336 1.782-.611 2.012-.611.23 0 .418-.45.418-1 0-1.629-2.733-1.138-3.404.611M155 244c0 .55.45 1 1 1s1-.45 1-1-.45-1-1-1-1 .45-1 1" fill="#1976D2" fill-rule="evenodd"/><path fill-opacity=".23" d="M116.5.713c-5.084.699-23.326 5.314-31.366 7.934-16.832 5.485-30.189 14.279-46.754 30.78C18.336 59.393 9.252 75.395 2.041 103.438.305 110.19 0 114.496 0 132.242c0 19.097.207 21.604 2.446 29.562 3.971 14.119 8.759 24.376 18.2 38.981 6.192 9.58 19.946 24.252 29.303 31.26 12.622 9.452 33.411 18.55 46.551 20.372 2.977.413 2.338.037-2.5-1.47-17.088-5.323-34.999-14.615-45.966-23.846-22.667-19.08-37.111-42.984-43.668-72.263-2.374-10.605-2.389-36.57-.026-47.838 2.615-12.474 6.207-22.79 11.677-33.533 6.69-13.14 12.731-21.346 23.921-32.491C58.555 22.432 81.182 10.531 107.5 5.438c11.709-2.265 33.822-2.304 45.5-.081 33.279 6.338 61.319 24.419 81.561 52.596 1.892 2.632 3.439 5.257 3.439 5.833 0 .576.376 1.197.836 1.381 1.205.48 7.548 14.07 10.615 22.742 1.441 4.074 3.239 10.824 3.995 15l1.375 7.591.051-9c.044-7.873-.351-10.001-3.161-17-10.324-25.72-25.1-44.373-48.178-60.821C179.097 6.264 159.657-.126 132 .167c-6.875.073-13.85.318-15.5.546M107 18.988c-25.364 5.496-45.407 16.373-62.044 33.673-19.46 20.235-29.306 41.255-32.002 68.325-2.872 28.822 4.442 55.424 21.453 78.029 20.92 27.799 49.989 43.267 85.648 45.572 56.667 3.664 110.194-38.945 119.453-95.087 4.864-29.494-1.63-59.735-17.824-83-5.675-8.154-17.684-20.591-25.633-26.547C182.673 29.928 163.019 21.546 147 19.034c-7.39-1.159-34.719-1.19-40-.046m1.5 2.473c-35.763 7.138-64.182 27.838-80.926 58.948-13.593 25.256-16.329 58.992-7.065 87.115 4.835 14.675 15.994 32.075 27.589 43.018C54.388 216.478 66.293 226 67.424 226c.317 0 .596-1.012.619-2.25.024-1.238 1.144-4.05 2.49-6.25 2.216-3.625 3.752-6.795 4.965-10.25.542-1.544 2.965-1.608 5.688-.15 4.45 2.381.544-1.063-4.436-3.913-11.007-6.298-26.092-24.505-31.608-38.15-5.606-13.867-7.845-29.791-6.138-43.641 1.125-9.125 5.698-24.318 9.09-30.203 2.439-4.232 2.401-4.534-.48-3.811-2.564.644-5.265-1.519-4.15-3.323.409-.663-.426-.817-2.348-.432-2.35.47-3.528.052-5.55-1.97-3.007-3.007-3.242-6.22-.699-9.528 2.973-3.865 10.978-3.493 9.468.44-.421 1.097.108 1.294 2.31.858 2.856-.565 6.457 1.676 7.659 4.767.347.891 1.28.38 2.938-1.607l2.43-2.913-6.91-5.947c-7.833-6.742-8.716-8.201-6.38-10.538 1.354-1.354 1.971-1.429 3.387-.416 3.069 2.197 4.342 2.516 5.485 1.373.826-.826.503-1.776-1.232-3.622-2.283-2.43-2.298-2.561-.531-4.514 1-1.105 2.087-2.004 2.414-1.996.327.008 3.925 3.158 7.996 7C67.971 58.856 71.628 62 72.028 62c1.254 0 3.117-2.783 2.11-3.153-1.162-.427-5.105-18.77-4.419-20.558.821-2.139 2.224-1.537 10.396 4.461 5.456 4.004 7.721 6.272 7.461 7.471-.346 1.594-.107 1.61 3.224.218C95.36 48.534 95.878 48 93.167 48 91.975 48 91 47.376 91 46.614c0-.762-.672-2.674-1.494-4.25-.821-1.575-1.496-3.776-1.5-4.891-.003-1.116-.733-3.066-1.622-4.335-1.985-2.834-1.224-3.664 4.843-5.281 3.31-.882 5.558-.962 7.5-.268 2.504.896 2.767 1.442 2.714 5.635-.048 3.85.333 4.852 2.234 5.87 1.26.674 2.555 2.054 2.876 3.066.454 1.433 1.51 1.81 4.766 1.704 2.301-.075 3.245-.322 2.1-.548-1.826-.36-2.239-1.596-3.335-9.979-.689-5.262-.876-9.926-.417-10.364.459-.439 3.76-.95 7.335-1.135 6.443-.335 6.503-.314 6.816 2.412.292 2.537.046 2.75-3.191 2.75-1.929 0-3.785.45-4.125 1-.373.604.99 1 3.441 1 3.581 0 4.059.274 4.059 2.324 0 1.831-.794 2.546-3.75 3.373l-3.75 1.05 4.75.127c4.356.116 4.75.332 4.75 2.607 0 2.497-.504 2.776-7 3.886-1.375.235 1.775.401 7 .368 11.61-.073 23.352 1.7 31.959 4.824 3.557 1.291 6.484 2.256 6.504 2.144.207-1.148 7.075-13.796 8.527-15.703l1.904-2.5 3.642 1.955c5.583 2.998 7.551 5.996 6.298 9.593-.567 1.623-1.436 2.952-1.932 2.952s-.902.8-.902 1.777c0 .978-.736 2.829-1.636 4.114-1.385 1.977-2.246 2.254-5.604 1.804l-3.968-.533 5.191 3.419c5.899 3.885 6.017 3.924 6.017 2.026 0-1.453 2.683-3.048 4.625-2.75.619.095 1.125-1.044 1.125-2.531 0-3.467 3.491-6.326 7.724-6.326 4.219 0 8.526 4.134 8.526 8.184 0 3.285-4.143 7.816-7.146 7.816-1.197 0-1.854.72-1.854 2.031 0 1.118-.675 2.291-1.5 2.607-1.888.725-1.91 2.095-.064 3.941.898.898 1.67 1.059 2.059.429.343-.555 3.042-1.008 5.998-1.008h5.375l2.353-5.186 2.354-5.187 2.265 2.432c1.246 1.337 2.071 3.108 1.834 3.936-1.19 4.16-1.105 4.467 1.326 4.808 2.254.315 5.922 3.627 5.978 5.397.012.385-2.531.835-5.651 1l-5.673.3-2.743 5.317-2.742 5.316 2.422 5.478c5.195 11.746 6.777 19.887 6.781 34.889.004 17.665-1.907 25.799-9.634 41-1.677 3.3-4.344 7.8-5.926 10-4.535 6.306-16.385 17.931-22.619 22.19-6.084 4.156-18.21 10.3-20.38 10.325-.978.012-.939.252.152.942 1.266.801 1.163 1.868-.75 7.806-1.218 3.783-2.215 7.142-2.215 7.463 0 .321 1.8.342 4 .047 3.884-.521 4-.451 4 2.412 0 2.848-.26 3.011-7.535 4.726-7.765 1.83-11.231 1.599-9.785-.654.444-.691 1.307-3.057 1.919-5.257.612-2.2 1.451-4.787 1.864-5.75.636-1.482.199-1.75-2.856-1.75-3.158 0-3.607-.304-3.607-2.441 0-1.343-.337-2.63-.75-2.861-1.47-.822-8.25.541-8.26 1.661-.005.628-1.805 3.972-4 7.431-2.194 3.46-3.99 6.47-3.99 6.69 0 .22 1.688.539 3.75.71 3.254.269 3.749.641 3.74 2.81-.009 2.465-.14 2.504-9.25 2.788-6.19.192-9.24-.074-9.24-.805 0-.601 1.8-3.743 4-6.983 2.2-3.24 4-6.14 4-6.445 0-.305-1.098-.555-2.441-.555-2.82 0-4.113-1.602-3.724-4.614.214-1.663-.406-2.25-2.906-2.75-4.392-.879-8.146-.796-7.552.165.273.441-.515 4.829-1.749 9.75-1.801 7.176-2.63 9-4.187 9.205-1.067.14-2.578-.157-3.357-.662-1.2-.778-1.062-2.262.911-9.756 1.28-4.861 2.754-9.393 3.275-10.071.674-.878.175-1.527-1.726-2.25-1.471-.56-3.23-1.017-3.909-1.017-.679 0-1.662-.427-2.185-.948-.522-.521-2.75-1.693-4.95-2.604l-4-1.657 2.101 2.354c3.179 3.564 3.424 5.285 1.257 8.848-1.858 3.055-2.251 3.223-6.454 2.749-4.158-.469-4.583-.297-5.992 2.428-1.195 2.312-1.981 2.801-3.714 2.315-6.764-1.896 8.49 5.969 18.802 9.695 20.819 7.524 50.924 7.604 72 .192 8.545-3.005 23.5-10.271 23.5-11.418 0-2.876-4.112-1.896-5.521 1.315-.588 1.34-2.037 2.354-3.627 2.538-2.194.254-2.642-.089-2.614-2 .018-1.269-.319-6.244-.75-11.057-.712-7.961-.626-8.75.965-8.75 2.635 0 16.757 13.011 16.069 14.804-.49 1.275-.328 1.287 1.174.087.957-.765 2.869-2.291 4.249-3.391 10.892-8.688 23.311-22.965 28.705-33a841.51 841.51 0 0 1 4.088-7.5c2.404-4.341 7.711-20.465 9.382-28.5 1.885-9.068 1.617-32.39-.483-42-1.675-7.666-6.833-21.907-10.751-29.68-4.913-9.746-20.701-28.275-29.719-34.879-13.224-9.683-29.284-17.181-44.167-20.62-9.189-2.124-34.646-2.627-43.5-.86m24.598 1.781c-.488 1.284-1.207 5.746-1.598 9.916l-.71 7.58 3.605.676c8.018 1.504 13.125-1.682 14.3-8.922.982-6.05-2.302-9.318-10.952-10.899-3.329-.608-3.858-.42-4.645 1.649m5.59 5.404c-1.006 1.005-.842 7.354.19 7.354 1.623 0 3.278-2.871 2.949-5.117-.338-2.302-1.936-3.441-3.139-2.237M97.277 44.952c.281 1.074-.004 2.201-.633 2.506-.629.305.205.29 1.854-.033 3.959-.776 4.22-1.17 1.929-2.904-2.669-2.019-3.752-1.871-3.15.431M103.5 45c-.34.55-.168 1 .382 1s1.278-.45 1.618-1c.34-.55.168-1-.382-1s-1.278.45-1.618 1m11.825.508c-12.557 1.965-22.581 5.639-34.25 12.555C77.01 60.472 64.394 71.151 62.838 73.5c-.365.55-1.65 2.125-2.856 3.5-7.256 8.27-13.378 20.833-17.033 34.954-1.907 7.369-2.125 10.259-1.693 22.5.539 15.291 2.26 22.63 7.98 34.046 11.658 23.262 35.198 41.235 60.298 46.038 13.278 2.54 35.678 1.257 43.966-2.52 1.1-.501 4.475-1.907 7.5-3.125 5.588-2.249 19.449-10.991 24-15.136 4.364-3.976 12.608-14.063 16.146-19.757 9.556-15.377 13.797-33.915 12.014-52.506-1.787-18.634-7.681-32.396-20.488-47.84C189.177 69.44 175.985 58 174.62 58c-.268 0-2.655-1.33-5.304-2.955-6.26-3.84-18.634-7.915-29.316-9.654-9.973-1.623-13.662-1.606-24.675.117M173.5 47c.34.55.816 1 1.059 1s.441-.45.441-1-.477-1-1.059-1-.781.45-.441 1m-7.5 3.409c0 .19.675.906 1.5 1.591.865.718 1.5.815 1.5.229 0-.558-.675-1.274-1.5-1.591-.825-.316-1.5-.419-1.5-.229m-85.878 2.869c-2.184 2.184-1.346 3.638 1.37 2.378 1.371-.636 2.496-1.445 2.5-1.799.016-1.264-2.769-1.68-3.87-.579M194 54.441c0 .793.359 1.663.798 1.934 1.279.791 3.525-1.043 2.771-2.263-.992-1.606-3.569-1.368-3.569.329m-79 1.619c-1.925.446-5.412.554-7.75.24-3.718-.5-4.25-.333-4.25 1.342 0 1.052-.727 2.951-1.616 4.22-1.189 1.697-1.321 2.601-.5 3.422.614.614 1.116 1.904 1.116 2.866 0 .963.563 2.11 1.25 2.55.688.44 1.745 1.7 2.351 2.8.689 1.252 2.371 2.123 4.5 2.328 4.619.446 9.664 5.172 5.52 5.172-.758 0-1.952 1.384-2.653 3.077-1.001 2.418-1.723 2.956-3.371 2.513-1.153-.309-3.967-.569-6.253-.576-3.638-.012-4.093-.26-3.643-1.98.283-1.082-.032-4.246-.7-7.031-1.779-7.413-5.988-10.418-13.699-9.778-4.955.411-6.046.903-8.494 3.835C74.594 73.713 74 75.433 74 79.188c0 8.728 5.467 13.756 15.001 13.797l3.501.015-.163 5.72c-.108 3.83-.604 5.836-1.5 6.068-4.326 1.123-8.774 3.722-9.868 5.766-.693 1.295-1.92 2.488-2.727 2.651-.979.197-1.537 1.747-1.677 4.656-.264 5.513-3.216 8.085-9.317 8.117L63 126v-4.067c0-3.688.198-4.005 2.118-3.395 1.532.486 1.994.297 1.667-.683-.248-.745-1.089-1.367-1.868-1.382-1.703-.032-1.454-4.523.311-5.614 1.366-.844 6.83.001 8.222 1.273 1.853 1.693 2.432.828 1.41-2.103-.809-2.322-1.836-3.129-4.698-3.693-12.245-2.413-18.878 2.437-18.468 13.505.182 4.929 2.212 7.76 7.024 9.797 3.689 1.561 12.282 1.839 12.282.396 0-1.306 5.672-7.034 6.966-7.034.569 0 1.034.882 1.034 1.96 0 2.224 5.302 7.633 5.856 5.972.198-.595-.588-1.965-1.748-3.046-1.641-1.529-2.108-3.159-2.108-7.36 0-2.968.439-6.55.975-7.961C83.036 109.776 85 109.084 85 111.5c0 .825.48 1.5 1.067 1.5.602 0 .799-.847.452-1.939-.426-1.342.015-2.277 1.433-3.035 2.488-1.332 2.558-.443.364 4.602-1.204 2.767-1.695 6.774-1.721 14.045-.02 5.594-.319 9.997-.665 9.784-1.318-.815-3.183 4.527-2.6 7.444.333 1.662.169 3.29-.363 3.619-.532.329-.967.167-.967-.36s-1.912-1.184-4.25-1.46c-2.338-.275-7.355-1.228-11.151-2.117-6.206-1.453-7.135-1.462-9.234-.087-1.283.841-2.602 2.6-2.93 3.909-.649 2.583 1.719 8.122 3.794 8.877.86.313.283 1.555-1.781 3.84-6.388 7.07-6.39 7.095-.878 14.488l2.318 3.11 5.64-1.436c5.232-1.333 5.735-1.307 6.953.36.995 1.359 2.709 1.803 7.052 1.826l5.738.03 1.836-5.5c1.01-3.025 1.856-6.4 1.88-7.5.024-1.1.603-3.606 1.287-5.569 1.23-3.531 1.265-3.549 3.235-1.659 1.568 1.504 2.894 1.789 6.241 1.338l4.25-.572v3.328c0 1.893.863 4.323 2 5.634 2.742 3.161 2.555 3.648-1.666 4.333-2.453.398-4.025.157-4.75-.729-.596-.729-1.865-1.596-2.819-1.927-2.567-.892-3.765 2.213-3.765 9.757 0 5.973.187 6.566 2.07 6.566 3.066 0 2.185 4.209-1.07 5.109l-2.5.692 2.556.099c1.405.055 4.08 1.225 5.944 2.6 2.763 2.038 4.542 2.5 9.635 2.5 3.436 0 6.524.448 6.863.996.386.626 1.748.411 3.656-.575 2.23-1.154 2.904-2.092 2.53-3.522-.292-1.116.951-4.752 2.91-8.509 1.88-3.608 3.164-6.972 2.853-7.475-.673-1.09-5.486-1.192-7.047-.15-.605.404-1.337 1.41-1.627 2.235-.356 1.015-.763.61-1.258-1.25-.403-1.512-1.16-2.75-1.682-2.75-2.273 0 .599-2.039 4.261-3.025 2.205-.594 4.259-1.731 4.564-2.527.893-2.326 6.995-1.884 7.632.552.294 1.127 1.364 2 2.45 2 2.863 0 3.293.939 1.428 3.117-.917 1.071-1.625 2.271-1.573 2.665.052.395-.47 2.068-1.159 3.718-.69 1.65-1.295 3.45-1.345 4-.05.55-1.375 1.045-2.944 1.1-3.684.129-5.147 1.078-5.147 3.337 0 2.541 2.173 4.07 6.661 4.689 2.111.29 5.414 1.335 7.339 2.321 1.925.986 5.24 2.057 7.367 2.379 3.617.548 4.182.267 8.75-4.348 4.659-4.708 4.883-5.189 4.883-10.457 0-3.126-.447-5.521-1.031-5.521-.568 0-1.31-.788-1.649-1.75-.898-2.542-4.453-6.25-5.994-6.25-1.906 0-1.634-1.411.674-3.5 2.061-1.865 2.616-3.5 1.189-3.5-.447 0-1.778.9-2.959 2-1.18 1.1-3.371 2-4.867 2-1.497 0-4.215.54-6.041 1.201-2.366.855-3.629.892-4.394.127-.765-.765.888-1.435 5.749-2.329 3.753-.69 7.498-1.819 8.323-2.509 3.901-3.26 9.145-1.917 7.657 1.961-.825 2.15 4.96 6.112 6.752 4.625 1.018-.846 2.823-.271 7.56 2.407 3.423 1.934 7.349 3.517 8.726 3.517 3.602 0 9.311-2.957 10.431-5.403.528-1.154 1.609-3.222 2.402-4.597 1.758-3.046 1.819-6.747.163-9.729-1.635-2.941-8.61-10.271-9.775-10.271-.504 0-.916-.752-.916-1.671 0-3.033-2.959-5.287-6.112-4.657-1.815.363-2.888.16-2.888-.547 0-.619.642-1.125 1.427-1.125.786 0 2.394-1.228 3.574-2.728l2.146-2.729 1.676 2.19c.923 1.205 3.719 3.269 6.215 4.588 2.496 1.318 5.495 2.995 6.665 3.726 1.858 1.16 2.556 1.033 5.532-1.006 3.912-2.68 5.482-5.696 6.381-12.258.86-6.273.072-8.767-4.138-13.103-3.514-3.618-8.537-5.012-9.93-2.757-.314.508-1.904 1.216-3.532 1.574-1.629.357-4.118 2.023-5.53 3.702-1.413 1.679-2.714 2.883-2.892 2.677-.178-.207-.85-1.389-1.494-2.626-.644-1.237-1.83-2.25-2.635-2.25-1.627 0-1.689-.302-1.595-7.685.058-4.578-.187-5.221-2.1-5.5-1.971-.287-2.142-.832-1.895-6.065.169-3.594-.132-5.75-.802-5.75-.59 0-1.073 1.323-1.073 2.941 0 1.618-.461 3.226-1.025 3.574-.563.349-.905.263-.759-.191.147-.453-2.085-3.016-4.959-5.696-5.131-4.784-5.81-6.628-2.443-6.628 2.372 0 10.003-7.423 10.769-10.474.349-1.389 1.26-2.526 2.025-2.526 2.032 0 1.756-.994-1.858-6.693a1434.933 1434.933 0 0 1-4.396-6.966c-.95-1.524-1.38-1.615-2.5-.529-1.136 1.101-1.082 1.466.336 2.266.93.525 3.063 2.988 4.74 5.473 2.471 3.662 2.767 4.628 1.56 5.091-.82.315-1.505 1.536-1.523 2.715-.049 3.212-7.002 9.633-11.568 10.684-4.084.94-7.789.399-6.918-1.01.28-.453-.092-2.255-.827-4.003-1.001-2.38-1.093-4.41-.367-8.083.534-2.697 1.25-4.76 1.591-4.583.342.176 1.375-.473 2.295-1.443 1.396-1.473 1.437-1.855.25-2.31-2.958-1.135-1.253-2.609 3.018-2.609 2.443 0 4.715-.444 5.051-.987.386-.624-1.521-.822-5.191-.538a721.06 721.06 0 0 1-6.559.487c-.418.021-.199.934.485 2.029 1.057 1.694.943 2.202-.768 3.4-1.722 1.206-2.007 2.511-1.985 9.111l.026 7.704-5.342-.443c-2.938-.244-5.683-.994-6.1-1.669-.825-1.336-5.706-4.094-7.244-4.094-.526 0-1.632.675-2.457 1.5-1.731 1.732-3.357 1.962-3.357.475 0-.563-1.147-1.461-2.548-1.993-1.479-.563-3.163-2.441-4.014-4.476-.806-1.928-1.935-3.506-2.51-3.506-.576 0-.768-.45-.428-1s1.437-1 2.437-1c1.001 0 2.457-.961 3.238-2.136 1.764-2.658 8.535-2.94 12.244-.509 2.232 1.462 2.38 1.957 1.467 4.886-.558 1.792-1.44 4.046-1.959 5.009-1.034 1.916.469 2.536 1.623.669.368-.595 1.755-.808 3.084-.475 1.79.45 3.02-.047 4.755-1.919 1.287-1.389 2.846-2.525 3.463-2.525.719 0 1.017-1.783.827-4.957-.236-3.978-.876-5.505-3.237-7.729-2.733-2.574-3.581-2.781-11.942-2.918-4.95-.081-10.575.218-12.5.664m-54.792 7.19c-.747.901-.391 2 1.278 3.939 2.194 2.55 2.396 2.598 3.909.927 1.474-1.629 1.404-1.93-.907-3.94-2.931-2.548-2.934-2.549-4.28-.926m60.288 2.757c-.343.554.1 1.285.984 1.624 1.914.734 2.981-.075 2.061-1.564-.83-1.344-2.235-1.371-3.045-.06m5.519 3.243c.009.688.452 1.925.985 2.75.755 1.169.973.893.985-1.25.008-1.513-.435-2.75-.985-2.75s-.993.563-.985 1.25M154 69c0 .55.45 1 1 1s1-.45 1-1-.45-1-1-1-1 .45-1 1m-68 1c0 .55.423 1 .941 1s1.219-.45 1.559-1c.34-.55-.084-1-.941-1S86 69.45 86 70m31 .5c0 .825.45 1.5 1 1.5s1-.675 1-1.5-.45-1.5-1-1.5-1 .675-1 1.5m38.5 1.5c-.34.55-.141 1 .441 1S157 72.55 157 72s-.198-1-.441-1-.719.45-1.059 1m5.188 1.051c-1.92 2.243-.932 2.579 1.772.602 1.026-.75 1.412-1.614.87-1.949-.535-.331-1.724.275-2.642 1.347M118 73.882c0 .55.45 1.278 1 1.618.55.34 1 .168 1-.382s-.45-1.278-1-1.618c-.55-.34-1-.168-1 .382m-27.386 2.48c-2.395 1.45-3.45 2.621-2.75 3.054 1.613.997 1.41 3.584-.281 3.584-.779 0-1.653-.562-1.942-1.25-.379-.903-.825-.778-1.605.451-.594.935-1.745 2.365-2.558 3.178-2.28 2.28-1.822 3.064 2.772 4.741C91.484 92.761 98 89.433 98 83.098c0-2.698-2.078-9.101-2.951-9.093-.302.003-2.298 1.064-4.435 2.357m59.896-1.346c.346.559 1.047.758 1.559.441 1.387-.857 1.129-1.457-.628-1.457-.857 0-1.276.457-.931 1.016M149.158 79c0 1.375.227 1.938.504 1.25.278-.687.278-1.812 0-2.5-.277-.687-.504-.125-.504 1.25m49.874-1.144c.017.354.71 1.542 1.539 2.639 1.294 1.712 1.642 1.783 2.453.5 1.551-2.453 1.118-3.487-1.525-3.639-1.374-.08-2.485.145-2.467.5M91 79c0 .55.434 1 .965 1 .53 0 1.466.937 2.08 2.083.889 1.662.764 2.471-.62 4-2.072 2.289-5.261 2.508-6.063.417-.635-1.654-3.362-2.078-3.362-.523 0 .537 1.122 1.712 2.493 2.61 3.36 2.202 7.086 1.128 9.013-2.599 1.401-2.709 1.392-3.214-.096-5.486C93.785 78.023 91 77.074 91 79m68 .5c0 .917.484 1.505 1.075 1.308.591-.197 1.075-.785 1.075-1.308s-.484-1.111-1.075-1.308c-.591-.197-1.075.391-1.075 1.308m16.235.537c-1.245.5-2.675 1.989-3.177 3.31-.502 1.32-2.52 3.393-4.485 4.608-4.23 2.614-4.486 3.778-1.022 4.647 1.8.452 2.921.135 3.807-1.077 1.16-1.586 1.636-1.466 6.199 1.554 5.589 3.699 7.69 5.646 9.263 8.584.915 1.711.657 2.392-1.615 4.251-2.184 1.788-3.476 2.096-6.705 1.599-4.973-.765-3.751.748 2.265 2.805 4.112 1.406 4.331 1.375 6.087-.856 1.548-1.969 2.447-2.232 6.007-1.754 5.966.8 8.141-1.382 8.141-8.168 0-4.489-.58-5.976-4.52-11.595-2.485-3.545-5.748-6.987-7.25-7.65-3.212-1.417-9.784-1.548-12.995-.258M157.5 83c-.34.55-.141 1 .441 1S159 83.55 159 83s-.198-1-.441-1-.719.45-1.059 1m-38 3.651c-9.938 2.61-19.863 10.925-25.366 21.25-10.146 19.035-2.307 43.704 16.552 52.089 6.118 2.721 10.899 3.765 9.91 2.166-.393-.636-1.619-1.156-2.725-1.156s-4.026-1.387-6.49-3.082c-3.243-2.231-4.397-3.654-4.18-5.157.164-1.141-.335-2.291-1.11-2.554-.963-.328-1.214.029-.794 1.125.339.882.135 1.901-.451 2.263-1.157.715-5.751-4.303-5.81-6.345-.02-.687-.486-1.25-1.036-1.25s-1-.873-1-1.941-.45-2.219-1-2.559c-.55-.34-1-1.616-1-2.837 0-1.22-.6-3.106-1.333-4.19-1.631-2.415-2.144-11.06-.709-11.947.578-.357 1.042.174 1.042 1.193 0 2.335 3.965 5.814 6.211 5.447 2.351-.383 5.789 1.597 5.789 3.334 0 .786.9 1.911 2 2.5s2.007 2.067 2.015 3.285c.013 1.793.199 1.929.977.715.53-.825.729-2.25.444-3.166-.284-.916-.049-1.955.523-2.309 1.642-1.014 1.215-2.317-.709-2.164-.963.077-1.655-.371-1.539-.994.116-.623-1.122-1.399-2.75-1.725-3.661-.732-3.734-2.021-.295-5.208 2.589-2.4 2.611-2.513.75-3.921-2.298-1.739-3.416-1.887-3.416-.453 0 .614-1.577.93-3.742.75-4.54-.376-5.032-1.894-3.162-9.76 1.074-4.519 2.312-6.547 6.662-10.916 2.939-2.951 5.61-5.1 5.935-4.774.326.325.133 1.165-.428 1.866-1.712 2.138-2.514 5.774-1.273 5.774.619 0 .848-.45.508-1-.34-.55.098-1 .972-1 .875 0 1.85.675 2.166 1.5.364.947 1.897 1.5 4.16 1.5 3.373 0 3.47-.087 1.643-1.481-1.598-1.219-1.694-1.643-.545-2.399.871-.573 1.126-1.613.678-2.769-.679-1.754-.784-1.759-2.006-.101-1.852 2.515-2.886 2.155-2.157-.75.378-1.509.2-2.5-.451-2.5-.593 0-.8-.45-.46-1s1.626-1 2.859-1 2.757-.516 3.388-1.147c1.393-1.393 15.428-2.423 17.948-1.317 2.117.928 1.897.861 6.055 1.85 3.146.748 4.123 1.957 2.428 3.004-.452.279-2.103-.157-3.67-.97-3.037-1.576-4.1-1.109-4.669 2.052-.243 1.348-1.144 1.966-2.847 1.951-2.152-.019-2.473-.45-2.352-3.157.17-3.788-1.583-4.695-4.765-2.466-1.295.907-3.364 1.517-4.599 1.355-2.002-.262-1.85.112 1.41 3.469 2.26 2.327 3.183 3.92 2.419 4.174-.679.227-1.648 1.499-2.153 2.829-.582 1.531-1.988 2.63-3.834 2.999l-2.916.584 2.402 3.539c1.838 2.707 2.138 3.857 1.277 4.895-1.489 1.793-2.881 1.723-2.881-.144 0-.825-.398-1.5-.883-1.5-.486 0-1.111-.871-1.39-1.935-.344-1.317-1.112-1.777-2.404-1.439-1.175.307-2.987-.512-4.751-2.147-2.006-1.859-3.07-2.291-3.587-1.454-.407.657-1.611.911-2.693.568-1.47-.467-2.26.041-3.168 2.034l-1.21 2.657 4.543-.623c4.687-.642 5.956.526 3.376 3.106-.89.89-.711 1.336.75 1.877 1.054.391 2.142 1.035 2.417 1.433.275.398 1.37.881 2.434 1.073 1.361.246 2.145-.39 2.65-2.15.394-1.375.761-1.937.816-1.25.055.688.775 1.25 1.6 1.25 1.823 0 1.962 2.138.25 3.85-.687.688-1.25 1.789-1.25 2.449 0 .659-.893 1.199-1.984 1.2-1.091 0-2.123.721-2.294 1.601-.257 1.323.346 1.492 3.484.98 2.895-.472 3.794-1.085 3.796-2.586.002-2.182 2.369-2.994 6.042-2.072 1.715.43 2.206 1.066 1.747 2.262-.479 1.249-.228 1.506 1.009 1.031 1.013-.389 2.018.025 2.611 1.077.772 1.368 1.216 1.459 2.227.458 1.886-1.868 6.862-1.608 6.862.358 0 1.196-.612 1.455-2.386 1.01-1.83-.459-2.507-.135-2.906 1.392-.569 2.175-4.282 2.768-4.942.789-.3-.9-.579-.91-1.116-.042-.435.705.488 1.78 2.36 2.748 3.42 1.769 5.617 6.035 4.069 7.9-1.28 1.542-.065 3.095 2.421 3.095 1.431 0 1.977.64 1.921 2.25-.044 1.245.514 2.25 1.25 2.25.731 0 1.329.45 1.329 1 0 1.456-5.752 1.227-6.28-.25-.245-.687-.832-.888-1.304-.446-.472.443-.26 1.174.47 1.626 1.736 1.072.505 5.07-1.562 5.07-1.164 0-1.38-.642-.882-2.626.514-2.049.34-2.504-.793-2.07-1.036.398-1.637-.426-2.096-2.873-.461-2.456-1.175-3.431-2.515-3.431-1.029 0-2.072.563-2.318 1.25-.245.688-.805.915-1.244.506-.438-.409.022-1.649 1.024-2.756 2.155-2.382 1.739-3.137-1.294-2.344-2.273.595-2.557 1.24-2.245 5.094.118 1.456-.372 2.25-1.389 2.25-.926 0-1.624-.925-1.7-2.25-.07-1.238-.233-3.264-.363-4.503-.169-1.615.716-2.841 3.127-4.331 3.418-2.112 4.527-4.916 1.946-4.916-.78 0-2.13-.273-3-.607-1.196-.459-1.582.036-1.582 2.031 0 1.466-.692 2.904-1.557 3.236-.883.339-1.309 1.247-.983 2.096.316.824-.221 2.102-1.193 2.839-1.674 1.271-1.675 1.343-.017 1.373 1.744.032 1.837.513 2.179 11.282.12 3.78 4.571 4.549 4.571.789 0-1.154 1.136-2.239 3.039-2.903 2.563-.893 3.345-.752 5 .903 2.136 2.136 2.622 4.961.854 4.961-.609 0-.848-.675-.531-1.5.389-1.015-.051-1.5-1.362-1.5-1.311 0-1.751.485-1.362 1.5.317.825.078 1.5-.531 1.5-1.961 0-1.178 2.036 1.143 2.969 1.237.497 1.613.933.833.968-3.444.154.526 1.563 4.404 1.563 2.374 0 4.109-.338 3.856-.75-.254-.412-1.33-.75-2.392-.75-1.846 0-1.854-.09-.192-2.031.957-1.118 3.689-2.976 6.073-4.13 3.266-1.581 4.215-2.549 3.854-3.932-.264-1.008.168-2.371.959-3.027 1.142-.948 2.012-.771 4.216.859 1.773 1.311 3.703 1.876 5.341 1.563 1.41-.27 2.89.037 3.288.682 1.047 1.694 6.883-5.002 10.113-11.605 2.279-4.659 2.672-6.803 2.776-15.162.113-9.076-.098-10.183-3.114-16.319-4.642-9.445-10.089-15.186-18.051-19.024-6.001-2.893-7.776-3.264-16.714-3.492-5.5-.141-10.9-.019-12 .269m-15.041 2.416c-1.089 1.762.059 2.009 2.114.454 1.692-1.28 1.721-1.461.236-1.489-.93-.018-1.988.448-2.35 1.035m-7.331.833c-.754.478-1.193 1.405-.974 2.061.256.77 1.062.457 2.277-.884 1.909-2.11 1.192-2.758-1.303-1.177M147 93c0 .55.45 1 1 1s1-.45 1-1-.45-1-1-1-1 .45-1 1m-1.8 6.123c-.708 2.268-1.087 4.324-.842 4.568.244.244 2.213.57 4.375.724 3.597.257 3.895.089 3.502-1.968-.362-1.89-.017-2.224 2.167-2.097 1.428.082 2.597.657 2.597 1.278.001 1.37 2.842 3.864 3.572 3.135.835-.835-6.376-8.001-7.41-7.363-.514.318-1.49-.092-2.17-.911-2.248-2.709-4.434-1.715-5.791 2.634m28.8-3.154c0 .532.675.709 1.5.393.825-.317 1.5-.753 1.5-.969 0-.216-.675-.393-1.5-.393s-1.5.436-1.5.969M94.5 99c-.34.55-.141 1 .441 1S96 99.55 96 99s-.198-1-.441-1-.719.45-1.059 1m33.5-.122c0 .482.675 1.437 1.5 2.122.825.685 1.5 2.315 1.5 3.622 0 2.413 1.818 3.15 3.55 1.44.522-.516 2.075-1.09 3.45-1.276 6.533-.88 6.065-4.018-.507-3.404-3.374.315-4.765-.025-6.088-1.487C129.59 97.89 128 97.414 128 98.878M171 100c0 1.1.45 2 1 2s1-.9 1-2-.45-2-1-2-1 .9-1 2m9 2c0 .55.423 1 .941 1s1.219-.45 1.559-1c.34-.55-.084-1-.941-1s-1.559.45-1.559 1m-4.731 2.693c.973.254 2.323.237 3-.037.677-.274-.119-.481-1.769-.461-1.65.02-2.204.244-1.231.498m-28.162 2.017c-2.092.829-6.107 4.517-6.107 5.61 0 1.599 3.342 3.614 6.05 3.648 1.402.018 3.048.53 3.657 1.139.81.81 1.421.522 2.275-1.074 1.008-1.883.886-2.255-.896-2.721-1.135-.297-1.817-.938-1.516-1.426.959-1.551 3.274-.954 3.896 1.006.764 2.409 4.199 3.332 6.68 1.795 1.514-.939 2.092-.903 2.76.17 1.143 1.837 2.302-.15 1.424-2.44-1.758-4.581-10.33-8.765-10.33-5.042 0 2.068-3.853 2.172-4.638.125-.608-1.583-1.009-1.68-3.255-.79m-8.028 1.873c.048 1.165.285 1.402.604.605.289-.722.253-1.585-.079-1.917-.332-.332-.568.258-.525 1.312m-17.079 1.3c0 1.043.893 2.117 2 2.407 2.954.772 2.429 2.457-1 3.21-3.341.734-4.132 3.5-1 3.5 1.1 0 2-.48 2-1.067 0-.621.857-.796 2.048-.418 1.126.358 2.696.113 3.487-.544 2.264-1.879 4.785-.382 4.081 2.424-.345 1.371-.072 2.798.644 3.373 1.777 1.429 7.74.319 7.74-1.441 0-.795-.419-1.186-.931-.87-.512.317-1.213.118-1.559-.441-.345-.559.074-1.016.931-1.016.857 0 1.559-.45 1.559-1s-.886-1-1.969-1c-1.26 0-1.778-.495-1.44-1.376.396-1.033-.271-1.282-2.682-1.002-1.765.206-3.776-.097-4.47-.673-.88-.73-1.46-.724-1.919.019-.362.585-1.099.792-1.638.459-.614-.38-.536-1.139.211-2.039.97-1.169.875-1.313-.511-.781-1.206.463-1.864.032-2.258-1.477-.689-2.632-3.324-2.828-3.324-.247m9.459.184c-1.019 1.647.61 2.318 4.982 2.051 1.922-.117 1.922-.133 0-1.586-2.32-1.755-4.083-1.92-4.982-.465m-62.646 3.616c.721.289 1.584.253 1.916-.079.332-.332-.258-.568-1.312-.525-1.165.048-1.402.285-.604.604m83.971 5.067c-.478 1.864 1.58 7.739 3.024 8.632.476.294.702-.909.503-2.674-.199-1.764-.356-4.221-.348-5.458.017-2.649-2.525-3.049-3.179-.5M145 119c0 .55.477 1 1.059 1s.781-.45.441-1-.816-1-1.059-1-.441.45-.441 1m-15.559 1.442c-1.886 1.401-1.878 1.437.309 1.287 1.238-.085 2.25-.734 2.25-1.442 0-1.62-.184-1.609-2.559.155m19.372-.759c.721.289 1.584.253 1.916-.079.332-.332-.258-.568-1.312-.525-1.165.048-1.402.285-.604.604m43.187.216c0 .678.484 2.136 1.075 3.241.897 1.677.732 2.098-1 2.551-1.141.298-2.075.916-2.075 1.374 0 .457 1.302.377 2.893-.178 2.866-.999 2.879-1.038 1.346-4.198-1.913-3.943-2.239-4.35-2.239-2.79M71.5 121c-.34.55-.168 1 .382 1s1.278-.45 1.618-1c.34-.55.168-1-.382-1s-1.278.45-1.618 1m94.235.25c-.37.963-1.361 1.75-2.204 1.75-.842 0-1.531.675-1.531 1.5s-.45 1.5-1 1.5-1-.45-1-1-.499-1-1.108-1c-.686 0-.867.962-.476 2.522.444 1.768.177 2.697-.891 3.107-.839.322-1.525 1.212-1.525 1.978 0 1.624 1.595 1.857 2.516.367.349-.565 2.204-.921 4.121-.792 4.957.334 6.331-2.49 4.467-9.182-.589-2.116-.799-2.231-1.369-.75m21.755-.234c-.346.559-1.016.777-1.49.484-.899-.555-2.517 1.316-1.777 2.056.603.603 5.76-1.905 5.769-2.806.012-1.103-1.773-.913-2.502.266M68.5 122c-.34.55-.141 1 .441 1S70 122.55 70 122s-.198-1-.441-1-.719.45-1.059 1m29.5.969c0 1.339.48 1.784 1.5 1.393.825-.317 1.5-1.203 1.5-1.969S100.325 121 99.5 121s-1.5.885-1.5 1.969m44.275.962c-1.028 1.646-.785 2.382 1.647 4.986l2.853 3.054 1.56-2.236c1.289-1.846 1.569-1.936 1.613-.516.081 2.678 3.052.958 3.052-1.767 0-2.794-1.604-4.026-3.353-2.574-.92.764-1.722.515-2.946-.914-2.104-2.458-2.908-2.464-4.426-.033M122 125c0 .55.45 1 1 1s1-.45 1-1-.45-1-1-1-1 .45-1 1m59.5 0c-.34.55-.141 1 .441 1s1.059-.45 1.059-1-.198-1-.441-1-.719.45-1.059 1m-82.99 2.016c.346.559 1.047.758 1.559.441 1.387-.857 1.129-1.457-.628-1.457-.857 0-1.276.457-.931 1.016m87.055-.121c-.305.493.082 1.139.858 1.437.776.298 1.66-.105 1.963-.895.599-1.561-1.895-2.04-2.821-.542m10.102.772c-1.038 1.037-.784 4.333.333 4.333.55 0 1-1.125 1-2.5 0-2.618-.231-2.936-1.333-1.833m-57.394 3.268c.292 1.119-.08 2.161-.884 2.469-2.016.774-1.744 5.528.361 6.304 2.39.882 3.217 2.298 3.235 5.542.017 3.101.665 3.329 3.456 1.218 1.068-.807 2.755-1.468 3.75-1.468.995 0 1.809-.675 1.809-1.5s.45-1.5 1-1.5 1 .51 1 1.133c0 1.391 3.897 4.879 5.403 4.835 3.982-.115 11.445-13.738 8.097-14.779-.55-.171-1.382 1.292-1.849 3.25-.882 3.697-1.98 4.454-3.351 2.311-.44-.687-1.796-1.806-3.013-2.485-1.869-1.044-2.125-1.005-1.643.25.313.817.124 1.485-.42 1.485-.545 0-1.238-.945-1.54-2.101-.317-1.212-1.019-1.81-1.66-1.414-.612.378-1.707.193-2.435-.411-.979-.812-1.625-.735-2.482.297-.898 1.082-.816 1.527.367 1.981 2.494.957 1.829 4.582-1.039 5.673-3.499 1.33-3.462 1.358-2.785-2.025.624-3.12-.387-3.863-2.45-1.8-.933.933-1.2.496-1.2-1.969 0-2.274.387-3.02 1.372-2.642 1.011.388 1.244-.148.884-2.031-.331-1.728-1.138-2.558-2.489-2.558-1.486 0-1.87.498-1.494 1.935m44.727-.376c0 .857.45 1.281 1 .941.55-.34 1-1.041 1-1.559s-.45-.941-1-.941-1 .702-1 1.559m3 2.441c0 .55.477 1 1.059 1s.781-.45.441-1-.816-1-1.059-1-.441.45-.441 1m3.368.214c-.268.432-.046.786.491.786.538 0 1.689.273 2.559.607.976.374 1.582.073 1.582-.786 0-1.462-3.796-1.96-4.632-.607M160.232 135c1.482 2.373 3.244 2.684 2.375.418-.334-.87-.607-1.77-.607-2 0-.23-.679-.418-1.508-.418-1.259 0-1.302.332-.26 2M195 136c0 .55.477 1 1.059 1s.781-.45.441-1-.816-1-1.059-1-.441.45-.441 1m-67.361 1.694c-1.126 1.126-.685 2.306.861 2.306.825 0 1.5-.423 1.5-.941 0-1.261-1.562-2.164-2.361-1.365m56.681.015c.855 1.383 4.68 2.361 4.68 1.197a.915.915 0 0 0-.918-.906c-.505 0-1.704-.301-2.664-.67-1.098-.421-1.505-.28-1.098.379m-97.837 1.318c-.678 1.098 1.164 3.973 2.546 3.973.96 0 .045-3.836-1.081-4.532-.445-.275-1.105-.024-1.465.559m16.075-.121c-.308.498-1.52.655-2.693.348-2.884-.754-2.089 1.432 1.26 3.465 1.873 1.136 3.632 1.356 6.474.808 3.264-.63 3.569-.879 1.866-1.528-1.119-.426-2.636-1.501-3.372-2.387-1.503-1.81-2.704-2.05-3.535-.706M191 139.5c-1.584 1.908-.098 1.889 2.441-.032 1.554-1.175 1.628-1.468.373-1.468-.863 0-2.129.675-2.814 1.5M58 147c-1.1 1.1-1.986 2.338-1.968 2.75.059 1.401 2.944 4.607 3.577 3.975 1.183-1.184 3.391 2.128 3.391 5.087 0 2.128.568 3.103 2.029 3.485 1.859.486 1.966.223 1.271-3.133-.696-3.365-.718-7.377-.06-11.164.143-.825-.19-1.5-.74-1.5s-.931.604-.846 1.342c.099.861-.542 1.159-1.791.832-1.551-.405-1.822-.121-1.339 1.403.46 1.447.227 1.765-.959 1.31-1.964-.754-1.982-1.827-.065-3.744.825-.825 1.5-1.757 1.5-2.072 0-1.224-2.095-.476-4 1.429m196.199 1.688c-.88 14.116-11.34 38.684-23.55 55.312-11.183 15.231-28.869 29.735-46.649 38.257-14.717 7.055-19.921 8.65-38.5 11.806l-11 1.868 11-.425c26.138-1.011 54.222-13.533 74.026-33.006 12.475-12.266 18.276-20.028 24.623-32.949 7.296-14.851 11.022-27.797 10.593-36.804-.189-3.986-.434-5.812-.543-4.059m-87.965.699c-.748 1.64-.815 2.613-.181 2.613 1.216 0 2.285-2.486 1.754-4.08-.211-.631-.918.029-1.573 1.467M71 149.134l-2.5 1.007 2.994 2.592c2.542 2.2 2.969 3.247 2.827 6.929-.114 2.926.245 4.338 1.1 4.338.698 0 2.084.9 3.079 2 2.013 2.224 3.5 2.593 3.5.867 0-.623 1.013-2.011 2.25-3.084 1.762-1.528 2.25-3.015 2.25-6.854 0-3.796.339-4.848 1.5-4.665.889.14 1.63-.68 1.82-2.014.233-1.645-.184-2.25-1.55-2.25-1.029 0-2.41.54-3.07 1.2-.933.933-1.467.933-2.4 0-1.436-1.436-8.304-1.474-11.8-.066m40-.134c0 .55.702 1 1.559 1s1.281-.45.941-1c-.34-.55-1.041-1-1.559-1s-.941.45-.941 1m-34.238 2.707c1.244.239 3.044.23 4-.02s-.062-.446-2.262-.435c-2.2.011-2.982.216-1.738.455M137 153c0 .55.45 1 1 1s1-.45 1-1-.45-1-1-1-1 .45-1 1m-54.547.807c1.258 2.236-.284 5.795-3.058 7.059-1.46.665-2.384 1.478-2.055 1.807.882.883 5.415-2.346 6.722-4.79.916-1.71.8-2.43-.605-3.75-.956-.898-1.408-1.045-1.004-.326m11.547.111c0 2.279 1.372 4.082 3.107 4.082 2.39 0 2.413-1.219.064-3.345-2.044-1.85-3.171-2.112-3.171-.737m16 .082c0 .55.648 1 1.441 1s1.719-.45 2.059-1c.34-.55-.309-1-1.441-1-1.132 0-2.059.45-2.059 1m41.081.525c-1.331.73-2.816 2.036-3.3 2.902-.484.865-1.703 1.573-2.708 1.573-1.006 0-2.406.696-3.112 1.547-1.057 1.274-.507 1.223 3.128-.287 5.472-2.275 10.896-5.513 10.905-6.51.009-1.089-2.134-.752-4.913.775m7.572 3.015c-2.665 2.453-4.24 4.446-3.5 4.428 1.588-.037 3.285-1.378 7.284-5.754 4.305-4.711 1.835-3.845-3.784 1.326m14.617-3.859c-3.314.673-6.272 5.027-6.255 9.204.016 3.819.473 4.824 3.135 6.904 1.374 1.074 2.245.955 5.214-.712 2.08-1.169 3.812-1.602 4.159-1.04.922 1.493 2.477 1.136 2.477-.568 0-.843-.713-1.805-1.584-2.14-.879-.337-1.148-.879-.605-1.218.539-.336 1.139-2.861 1.334-5.611.351-4.943.321-5.002-2.645-5.136-1.65-.075-4.004.068-5.23.317m-.77 3.051c-2.526.631-3.465 2.077-3.485 5.363-.015 2.624 2.66 5.905 4.814 5.905 1.962 0 1.304-2.152-.829-2.71-1.394-.365-2-1.364-2-3.3 0-3.353 2.596-4.666 4.973-2.514 1.855 1.679 4.027 2.023 4.027.639 0-.801-4.533-4.277-5.215-3.999-.157.064-1.185.341-2.285.616M135 160c0 .55.45 1 1 1s1-.45 1-1-.45-1-1-1-1 .45-1 1m-32 3.021c0 .562 1.237 1.513 2.75 2.113a69.24 69.24 0 0 1 5.404 2.479c1.46.763 3.335 1.387 4.167 1.387.832 0 1.662.413 1.846.918.183.504 1.565.678 3.071.385 3.436-.667 2.601-2.303-1.175-2.303-3.264 0-9.708-2.502-11.78-4.574-1.651-1.651-4.283-1.899-4.283-.405m-47.984 2.448c-1.407 2.631-.676 6.057 1.064 4.982.788-.487.79-.981.007-1.764C54.254 166.854 54.862 166 58 166c2 0 3 .5 3 1.5 0 1.816-1.635 1.991-2.338.25-.301-.747-.536-.545-.583.5-.043.963.398 1.75.98 1.75s.776.457.431 1.016a1.205 1.205 0 0 1-1.655.382c-.599-.37-.879.144-.671 1.234.214 1.119 1.354 1.986 2.846 2.161 1.982.234 2.184.081.99-.75-1.333-.927-1.333-1.151 0-2.017 1.08-.701 1.591-.561 1.823.5.178.811 1.021 1.474 1.873 1.474 1.263 0 1.319-.276.304-1.5-.86-1.036-.898-1.5-.122-1.5 2.17 0 2.62.208 2.372 1.1-.138.495.2.9.75.9s1-.659 1-1.465c0-1.759-2.963-3.456-4.855-2.782-.971.347-1.172-.092-.709-1.551.733-2.311-.477-3.353-4.431-3.813-2.019-.235-3.032.293-3.989 2.08M68 166.5c0 .825.4 1.5.889 1.5.488 0 1.181 1.559 1.538 3.465.605 3.221 2.573 5.971 2.573 3.594 0-.582.886-1.059 1.969-1.059 1.339 0 1.784.48 1.393 1.5-.638 1.662 1.16 2.083 2.138.5.34-.55 1.491-1 2.559-1 1.229 0 1.941-.686 1.941-1.869 0-2.623-6.808-3.776-8.514-1.442-.727.994-1.684 1.306-2.486.811-1.016-.628-.897-1.102.538-2.152 1.773-1.296 1.762-1.42-.306-3.347-2.551-2.376-4.232-2.575-4.232-.501m72 5.548c0 .576-1.066 2.039-2.369 3.25-2.231 2.073-5.034 10.965-3.835 12.165.295.295 2.487.537 4.871.537 2.933 0 4.252.404 4.083 1.25-.387 1.937 6.245 1.148 9.208-1.094 1.398-1.058 2.41-2.651 2.248-3.54-.161-.889.165-1.616.726-1.616.56 0-.204-2.025-1.699-4.5-2.082-3.447-3.484-4.644-5.987-5.114-1.797-.337-3.515-1.012-3.816-1.499-.765-1.238-3.43-1.112-3.43.161M79 173c0 .55.45 1 1 1s1-.45 1-1-.45-1-1-1-1 .45-1 1m22.28 1.02c-1.221.491-2.504 2.025-2.851 3.407-.452 1.801-1.229 2.451-2.739 2.293-2.93-.306-3.455 2.902-.622 3.802 1.392.441 2.484.204 3.015-.657.664-1.074 1.087-1.095 2.075-.107.683.683 2.25 1.242 3.483 1.242s2.519.45 2.859 1c.34.55 1.664 1 2.942 1 1.418 0 2.513.719 2.807 1.843.317 1.213 1.296 1.783 2.866 1.667 3.021-.222 3.696-3.118.932-3.995-1.559-.495-1.844-1.056-1.157-2.283 1.111-1.986-.273-6.008-2.913-8.468-2.017-1.879-7.013-2.226-10.697-.744m41.074 1.667c1.005 1.006 4.646 1.12 4.646.146 0-.458-1.2-.833-2.667-.833-1.466 0-2.357.309-1.979.687m-40.374 1.837c-.696.838-.971 1.818-.612 2.177s1.211-.05 1.892-.909c.682-.859 1.915-1.803 2.74-2.098 1.013-.362.809-.562-.628-.615-1.17-.043-2.696.607-3.392 1.445m47.353 2.52c0 1.626.375 2.956.834 2.956 1.085 0 1.085-4.726 0-5.397-.459-.283-.834.815-.834 2.441m-12.254-.461c.048 1.165.285 1.402.604.605.289-.722.253-1.585-.079-1.917-.332-.332-.568.258-.525 1.312M110 182c0 .55.45 1 1 1s1-.45 1-1-.45-1-1-1-1 .45-1 1m27.031.5c0 .55.436 1.675.969 2.5.533.825.969 1.05.969.5s-.436-1.675-.969-2.5c-.533-.825-.969-1.05-.969-.5m5.692 2.111c-1.241 1.241 1.356 4.389 3.621 4.389 2.711 0 6.474-2.516 5.388-3.602-.421-.42-1.298-.232-1.949.419-1.504 1.504-4.864 1.547-4.533.058.289-1.302-1.563-2.229-2.527-1.264M88 188c0 1.1.45 2 1 2s1-.9 1-2-.45-2-1-2-1 .9-1 2m49.269 1.693c.973.254 2.323.237 3-.037.677-.274-.119-.481-1.769-.461-1.65.02-2.204.244-1.231.498m-22.019 2.969c-2.267.915-1.36 3.338 1.25 3.338 1.833 0 2.5-.533 2.5-2 0-1.944-1.192-2.37-3.75-1.338M203.5 195c-.34.55.084 1 .941 1s1.559-.45 1.559-1-.423-1-.941-1-1.219.45-1.559 1m-3.5 4c0 .55.45 1 1 1s1-.45 1-1-.45-1-1-1-1 .45-1 1" fill="#1976D2" fill-rule="evenodd"/><path fill-opacity=".985" d="M118.626 1.061c-9.779 1.135-30.3 6.506-40.37 10.565-21.842 8.806-44.005 28.228-59.708 52.326-6.444 9.888-9.894 17.712-14.277 32.377C.689 108.314.627 108.818.228 129.328c-.438 22.523-.084 24.986 6.29 43.726 2.818 8.283 11.249 23.707 17.793 32.552C32.465 216.625 46.588 229.99 57 236.539c6.373 4.008 18.953 10.035 22.5 10.779 2.856.599 2.88.577.5-.447-5.314-2.288-22.963-11.788-24.729-13.311-.676-.583-3.556-2.86-6.4-5.06-19.662-15.211-35.509-39.007-42.582-63.939C-5.692 122.326 5.208 77.749 35.731 44.15 40.866 38.499 57.864 24 59.355 24c.318 0 3.284-1.749 6.592-3.887C78.231 12.173 98.14 5.705 116 3.85c38.445-3.991 74.56 8.048 102.259 34.087 11.547 10.855 23.653 28.431 28.628 41.563 1.25 3.3 2.687 6.781 3.193 7.736.506.955.92 2.424.92 3.264 0 .84.416 2.309.925 3.264.509.955 1.355 3.761 1.88 6.236l.955 4.5.12-5.004c.203-8.452-6.565-24.823-16.659-40.297-11.954-18.323-33.964-37.166-55.869-47.829-20.025-9.747-40.304-13.028-63.726-10.309m-12.85 18.857C93.277 22.643 84.71 25.659 75 30.753 42.308 47.902 21.055 76.582 14.421 112.5c-2.484 13.448-1.506 36.655 2.081 49.384 6.459 22.925 20.392 43.525 39.958 59.08 12.23 9.723 31.733 18.447 48.344 21.625 9.26 1.772 26.917 1.974 38.196.437 14.172-1.932 32.602-8.856 44.016-16.537 2.852-1.919 5.602-3.489 6.111-3.489 2.359 0 24.043-23.074 29.262-31.138 23.949-37.001 24.62-84.088 1.722-120.862-1.884-3.025-5.267-7.743-7.518-10.485A733.356 733.356 0 0 1 211 53.637c-.825-1.042-5.775-5.477-11-9.857-11.573-9.701-28.408-18.345-43.5-22.337-13.816-3.655-37.668-4.372-50.724-1.525M117 19.681C86.967 24.585 68.018 33.424 49.449 51.19 9.711 89.212 2.845 149.439 33.196 193.763c22.845 33.361 63.375 52.478 102.4 48.297 13.657-1.463 21.076-3.223 31.791-7.542 12.122-4.887 18.878-8.861 29.312-17.241 18.486-14.846 31.867-34.794 37.752-56.277l3.558-12.997c.525-1.923.786-10.923.579-20-.484-21.213-2.277-28.845-11.191-47.645C221.86 68.682 207.955 51.541 198 44.12c-1.925-1.435-3.725-2.846-4-3.136-2.026-2.138-15.202-9.676-21.709-12.421-17.053-7.192-41.547-11.127-55.291-8.882m-6.514 3.342c-.348.563-.313 5.109.078 10.102l.71 9.079 6.613-.69c7.253-.756 8.708-1.522 7.729-4.072-.519-1.354-1.434-1.567-4.572-1.065-2.158.345-4.173.224-4.478-.27-.628-1.017 1.678-2.107 4.457-2.107 2.301 0 3.182-1.302 2.35-3.471-.439-1.144-1.568-1.556-3.67-1.341-1.706.176-3.208-.207-3.431-.874-.249-.744 1.023-1.303 3.416-1.5 3.075-.253 3.874-.749 4.132-2.564.303-2.136-.012-2.25-6.191-2.25-3.581 0-6.795.46-7.143 1.023m22.103 5.227c-.368 3.438-.926 7.712-1.24 9.5l-.572 3.25h6.073c6.545 0 9.584-1.896 10.799-6.737C149.401 27.284 144.909 22 137.225 22h-3.967l-.669 6.25m-14.839-3.588c.688.278 1.813.278 2.5 0 .688-.277.125-.504-1.25-.504s-1.937.227-1.25.504m-5.405 1.881c-.326.849-.311 1.824.031 2.167.343.343.624-.089.624-.96s.563-1.81 1.25-2.088c.979-.395.972-.521-.031-.583-.705-.043-1.548.615-1.874 1.464m-22.023 1.783c-4.453 1.645-4.816 2.271-2.957 5.108.899 1.372 1.642 3.299 1.65 4.281.017 1.995 2.28 8.913 3.224 9.858.336.335 1.545.313 2.688-.05 1.612-.511 1.94-1.203 1.467-3.091-.697-2.776.255-3.066 3.227-.985 2.136 1.496 6.379 1.062 6.379-.653 0-.536-1.013-1.793-2.25-2.795-1.629-1.319-2.267-2.928-2.312-5.831-.104-6.825-3.551-8.636-11.116-5.842m48.227-.059c-.207.678-.629 2.695-.937 4.483-.479 2.77-.267 3.25 1.438 3.25 2.178 0 4.268-4.008 3.345-6.414-.745-1.942-3.381-2.846-3.846-1.319m6.646 3.233c.02 1.65.244 2.204.498 1.231.254-.973.237-2.323-.037-3-.274-.677-.481.119-.461 1.769M90 30.969c0 .532.675.709 1.5.393.825-.317 1.5-.753 1.5-.969 0-.216-.675-.393-1.5-.393s-1.5.436-1.5.969m23 1.59c0 .857.457 1.276 1.016.931.559-.346.758-1.047.441-1.559-.857-1.387-1.457-1.129-1.457.628m4.75-.897c.688.278 1.813.278 2.5 0 .688-.277.125-.504-1.25-.504s-1.937.227-1.25.504m52.428 7.641C167.88 43.319 166 47.29 166 48.126c0 1.797 8.239 6.161 10.755 5.696.96-.177 2.619-2.122 3.688-4.322s2.531-4.595 3.25-5.321c1.649-1.668 1.673-4.325.057-6.409-1.022-1.319-8.044-5.77-9.102-5.77-.16 0-2.172 3.286-4.47 7.303m4.887-2.882c-.967 1.166-.811 1.325.867.887 1.125-.295 1.799-.934 1.498-1.422-.733-1.185-.984-1.129-2.365.535M70.406 38.384c-.842 2.195 2.765 19.62 4.058 19.601 1.487-.022 2.874-1.19 4.137-3.485.61-1.109 2.392-2.151 4-2.338C85.636 51.807 88 50.369 88 48.878c0-.483-.534-.878-1.188-.878-.653 0-3.916-2.104-7.25-4.676a1888.94 1888.94 0 0 0-7.3-5.612c-.839-.635-1.437-.419-1.856.672M134 38c0 .55.477 1 1.059 1s.781-.45.441-1-.816-1-1.059-1-.441.45-.441 1m-20 1.201c0 .439 1.575.799 3.5.799s3.5-.176 3.5-.391c0-.214-1.575-.574-3.5-.799-1.925-.225-3.5-.049-3.5.391m62.694.438c-.799.799.104 2.361 1.365 2.361.518 0 .941-.675.941-1.5 0-1.546-1.18-1.987-2.306-.861M181 40c0 .55.477 1 1.059 1s.781-.45.441-1-.816-1-1.059-1-.441.45-.441 1m-9.541 2.067c-1.076 1.741.149 2.11 1.521.457.789-.95.865-1.524.201-1.524-.584 0-1.36.48-1.722 1.067M73 43.559c0 .857.457 1.276 1.016.931.559-.346.758-1.047.441-1.559C73.6 41.544 73 41.802 73 43.559m41 .467C98.766 46.053 78.575 55.81 67.64 66.43c-4.218 4.096-5.254 4.361-6.14 1.57-.349-1.1-1.054-2-1.567-2-1.401 0-1.122-2.598.415-3.874 1.029-.854 1.777-.646 3.155.878 2.171 2.399 3.809 2.529 5.542.442 1.102-1.328.361-2.491-5.099-8-6.737-6.798-7.924-7.383-9.97-4.917-1.053 1.269-.878 1.946 1.024 3.971 1.902 2.025 2.077 2.702 1.024 3.971-1.662 2.003-2.21 1.936-4.93-.598-2.269-2.114-2.297-2.115-4.245-.166-1.949 1.949-1.922 2 4.145 7.869 3.359 3.25 6.95 6.362 7.979 6.916 1.76.947 1.693 1.209-1.122 4.353-1.646 1.84-3.098 3.19-3.225 3-.127-.19-1.005-1.582-1.952-3.095C51.258 74.487 50.238 74 46.91 74c-3.59 0-3.973-.225-3.41-2 .552-1.741.18-2-2.876-2C36.584 70 34 72.789 34 77.151c0 3.901 2.625 6.112 6.691 5.637 2.923-.341 3.331-.122 3.088 1.659-.22 1.618.356 2.125 2.721 2.391 1.65.187 3.464.723 4.032 1.192.641.53 1.506-.219 2.284-1.976 2.308-5.214 14.287-18.138 22.358-24.123 24.213-17.953 53.189-22.428 81.799-12.632 5.649 1.934 9.654 2.928 8.899 2.209-2.312-2.203-15.158-6.302-23.301-7.435-8.431-1.173-19.969-1.192-28.571-.047m61.733.098c.679.684 1.486.991 1.793.683.308-.308-.247-.867-1.233-1.243-1.425-.542-1.54-.428-.56.56M172.5 47c.34.55 1.266 1 2.059 1 .793 0 1.441-.45 1.441-1s-.927-1-2.059-1c-1.132 0-1.781.45-1.441 1m-91.274 1.574c.95.994 2.001 1.533 2.336 1.197.335-.335-.442-1.148-1.726-1.807-2.233-1.145-2.26-1.118-.61.61M168 48c0 .55.45 1 1 1s1-.45 1-1-.45-1-1-1-1 .45-1 1m22.635 1.073c-1.775 1.395-2.635 3.028-2.635 5 0 1.61-.45 2.927-1 2.927s-1-.55-1-1.222c0-.672-.994-.228-2.209.987-2.18 2.179-2.183 2.228-.252 3.64 1.077.787 1.64 1.749 1.252 2.138-.389.388-2.129-.491-3.869-1.955-3.358-2.826-8.875-5.969-9.456-5.387-.192.191 2.32 2.103 5.581 4.247 7.292 4.795 17.447 14.958 23.327 23.346l4.412 6.293 2.038-2.59c1.121-1.425 2.33-3.92 2.686-5.544.63-2.865.825-2.953 6.569-2.953 4.078 0 5.916-.389 5.906-1.25-.032-2.551-1.899-4.083-4.977-4.083-3.046 0-3.144-.128-2.545-3.32.609-3.246-.711-7.347-2.365-7.347-.457 0-1.784 2.292-2.948 5.094l-2.117 5.093-5.506-.343c-5.113-.319-5.463-.201-4.904 1.656.433 1.439-.603.878-3.694-2-5.396-5.025-7.878-7.878-7.332-8.427.233-.235 1.753.846 3.377 2.402 2.511 2.406 3.191 2.633 4.535 1.517.87-.722 1.352-1.911 1.072-2.642-.32-.832.505-1.571 2.204-1.974 4.339-1.03 6.215-3.282 6.215-7.458 0-4.23-3.493-7.918-7.5-7.918-1.227 0-3.416.933-4.865 2.073M56 52.378c0 .207.788.995 1.75 1.75 1.586 1.243 1.621 1.208.378-.378C56.821 52.084 56 51.555 56 52.378m19.079 1.205c.048 1.165.285 1.402.604.605.289-.722.253-1.585-.079-1.917-.332-.332-.568.258-.525 1.312m118.836.019c-.888 1.07-.927 1.786-.14 2.573 1.381 1.381 4.225.347 4.225-1.537 0-2.083-2.656-2.757-4.085-1.036M120 55.774c-2.475.15-5.513.789-6.75 1.419-1.726.878-2.809.846-4.651-.14-3.296-1.764-4.6-1.091-6.047 3.119-1.553 4.516-.847 9.938 1.37 10.518.911.238 2.089 1.418 2.617 2.622 1.012 2.305 7.461 3.819 7.461 1.751 0-.584-1.364-1.063-3.031-1.063-1.971 0-3.262-.613-3.688-1.75-.362-.963-1.193-2.2-1.849-2.75-1.657-1.39-2.653-6.245-1.436-6.998.552-.341 1.004-1.493 1.004-2.561 0-1.068.45-1.941 1-1.941s1 1.35 1 3c0 2 .5 3 1.5 3 .833 0 1.5.889 1.5 2 0 2.842 4.547 2.714 6.091-.171.946-1.768.86-2.392-.464-3.36-2.388-1.746-1.991-3.155 1.123-3.985 5.006-1.334 7.714-1.427 10.98-.379 1.777.571 3.802.679 4.5.241.699-.438 2.057-.667 3.02-.508.963.158 1.75-.191 1.75-.775 0-.585-.338-1.101-.75-1.147-2.563-.286-12.455-.373-16.25-.142m-60 1.045c0 1.208 1.897 2.617 2.591 1.924.251-.252-.229-1.027-1.067-1.723-.95-.789-1.524-.865-1.524-.201m65.441 3.666c1.922 1.5 1.922 1.515 0 1.559-1.091.025-.294.631 1.818 1.385 2.068.738 4.431 1.899 5.25 2.579 2.236 1.855 1.727-.144-.795-3.123-1.218-1.438-3.564-2.908-5.214-3.265-2.828-.613-2.889-.564-1.059.865m62.645 1.133c1.328 1.715 2.615 2.939 2.861 2.72.246-.219-.841-1.622-2.414-3.118l-2.861-2.72 2.414 3.118M65 61c0 .55.477 1 1.059 1s.781-.45.441-1-.816-1-1.059-1-.441.45-.441 1m55.813-.317c.721.289 1.584.253 1.916-.079.332-.332-.258-.568-1.312-.525-1.165.048-1.402.285-.604.604m17.437.38c1.196.708 1.75 2.286 1.75 4.987 0 2.172.475 3.95 1.055 3.95.632 0 .933-1.865.75-4.655-.269-4.111-.597-4.694-2.805-4.987-2.128-.283-2.239-.178-.75.705m-87.696 1.025c.816 1.319 4.447 3.117 4.438 2.197-.004-.432-1.13-1.305-2.501-1.941-1.371-.637-2.243-.751-1.937-.256M110 62c0 .55.423 1 .941 1s1.219-.45 1.559-1c.34-.55-.084-1-.941-1S110 61.45 110 62m52 0c0 .55.45 1 1 1s1-.45 1-1-.45-1-1-1-1 .45-1 1m-41.187.683c.721.289 1.584.253 1.916-.079.332-.332-.258-.568-1.312-.525-1.165.048-1.402.285-.604.604m28.222 1.908c.838 2.205.685 2.669-1.025 3.117-1.995.521-2.909 4.292-1.041 4.292.532 0 .709-.675.393-1.5-.365-.95.013-1.5 1.031-1.5 1.599 0 1.988-.975 1.671-4.183-.119-1.201.777-1.799 3.135-2.09 2.942-.363 2.842-.424-.924-.567-4.153-.157-4.209-.116-3.24 2.431M56 66.378c0 .207.788.995 1.75 1.75 1.586 1.243 1.621 1.208.378-.378C56.821 66.084 56 65.555 56 66.378m24.359 2.545c-3.291 2.007-4.9 3.869-4.065 4.704.272.272 1.646-.658 3.054-2.066 2.343-2.343 4.57-2.938 10.902-2.91.963.004 1.75-.365 1.75-.822 0-1.613-8.512-.814-11.641 1.094M211 68.059c0 .582.45.781 1 .441s1-.816 1-1.059-.45-.441-1-.441-1 .477-1 1.059m-80 3.874c0 2.204 3.042 3.506 6 2.567 2.01-.638 2.869-4.5 1-4.5-.55 0-1 .9-1 2 0 1.333-.667 2-2 2s-2-.667-2-2c0-1.1-.45-2-1-2s-1 .87-1 1.933m-39.971 2.028c-.809.512-1.258 1.143-.998 1.403.259.26 1.345-.166 2.412-.946 2.133-1.56.94-1.946-1.414-.457M170 74c0 .55.45 1 1 1s1-.45 1-1-.45-1-1-1-1 .45-1 1m-72.842 2c0 1.375.227 1.938.504 1.25.278-.687.278-1.812 0-2.5-.277-.687-.504-.125-.504 1.25m48.094 1.5c.011 2.2.216 2.982.455 1.738.239-1.244.23-3.044-.02-4s-.446.062-.435 2.262M207 75c0 1.174.769 1.174 3.5 0 1.772-.762 1.687-.867-.75-.93-1.512-.038-2.75.38-2.75.93M40 76.559c0 .857.45 1.281 1 .941.55-.34 1-1.041 1-1.559S41.55 75 41 75s-1 .702-1 1.559m34.015 2.191c.009 2.063.452 4.425.985 5.25.694 1.074.974.008.985-3.75C75.993 77.362 75.55 75 75 75s-.993 1.688-.985 3.75m-29.54-1.71c-.413.669.239.819 1.828.42 1.875-.471 2.861-.065 4.084 1.682 1.801 2.571 2.178 1.782.578-1.208-1.102-2.059-5.403-2.652-6.49-.894m122.604.543c.048 1.165.285 1.402.604.605.289-.722.253-1.585-.079-1.917-.332-.332-.568.258-.525 1.312M199.659 80c2.168 3.67 3.1 3.763 4.366.435 1.338-3.521 1.403-3.435-2.582-3.435h-3.556l1.772 3m-74.045-.436c-.679 1.768-3.752 1.872-5.539.186-1.06-1-1.417-1-1.783 0-.252.688-1.12 1.25-1.927 1.25-.808 0-1.903 1.237-2.434 2.75-.558 1.591-2.748 3.803-5.198 5.25-5.719 3.378-5.733 3.382-5.733 1.615 0-.853 1.237-2.225 2.75-3.049 2.716-1.48 2.686-1.496-2.5-1.315-2.888.101-5.25.536-5.25.966 0 .431.675.783 1.5.783 2.138 0 1.858 1.315-.814 3.826-2.688 2.525-3.686 2.733-3.686.769 0-1.071-1.009-1.276-4.25-.862-5.508.703-6.083 1.267-1.292 1.267 3.669 0 3.773.096 3.2 2.961-.326 1.629-.157 3.23.375 3.559.532.329.967-.104.967-.961S94.527 97 95.171 97s2.051-.787 3.126-1.75c1.318-1.18 1.067-.447-.768 2.25-1.498 2.2-3.13 3.888-3.626 3.75-.497-.137-.903.269-.903.904 0 .634-1.205 3.671-2.679 6.75-3.486 7.285-4.402 20.493-1.942 28.015.891 2.726 1.621 5.466 1.621 6.089 0 1.463 4.94 8.494 9.183 13.069 4.23 4.561 13.774 9.967 19.712 11.164 20.117 4.056 39.676-4.835 48.927-22.241 1.97-3.707 3.635-5.607 5.107-5.827 1.201-.18 2.681-1.417 3.288-2.75.607-1.333 1.531-2.423 2.052-2.423.521 0 .663-1.134.315-2.521-.348-1.386-.156-3.411.427-4.5.746-1.393.746-1.979-.001-1.979-.583 0-1.487-1.125-2.01-2.5-1.413-3.717-2.963-3.045-2.306 1 .329 2.029.151 3.5-.424 3.5-.546 0-1.242-2.752-1.547-6.116-.305-3.363-1.042-6.603-1.639-7.2-1.587-1.587-1.323-4.378.479-5.07.86-.33 1.254-1.101.875-1.714-.485-.785-.93-.722-1.509.214-.451.731-.959 1.116-1.128.857a361.206 361.206 0 0 0-2.554-3.681c-1.236-1.765-2.247-3.404-2.247-3.642s-2.549-2.942-5.665-6.009c-3.841-3.779-5.209-5.721-4.25-6.028.778-.249 2.09-.678 2.915-.953.825-.275.3-.536-1.167-.579-1.466-.043-2.846.46-3.066 1.119-.306.918-1.125.896-3.516-.094-1.932-.8-2.919-1.806-2.596-2.648.357-.929-.216-1.3-1.817-1.177-1.286.099-6.163-.242-10.838-.758-6.211-.685-7.652-1.083-5.353-1.479l3.148-.542-3.315-1.686c-2.821-1.436-3.397-1.473-3.866-.25M41 80c-.901.582-1.025.975-.309.985.655.008 1.469-.435 1.809-.985.767-1.242.421-1.242-1.5 0m4.694-.361c-.799.799.104 2.361 1.365 2.361.518 0 .941-.675.941-1.5 0-1.546-1.18-1.987-2.306-.861M86.5 81c-.34.55.11 1 1 1s1.34-.45 1-1c-.34-.55-.79-1-1-1-.21 0-.66.45-1 1m87.155.829c-.91 1.006-1.655 2.319-1.655 2.918 0 .6-1.575 2.063-3.5 3.253s-3.5 2.576-3.5 3.082c0 1.531 4.021 1.026 4.638-.582.781-2.034 2.702-1.887 4.737.361.926 1.024 3.358 2.62 5.405 3.546 2.49 1.127 4.331 2.949 5.569 5.511 1.789 3.704 1.79 3.897.028 5.955-1.002 1.17-2.621 2.127-3.599 2.127-2.24 0-2.319 1.578-.123 2.421 1.001.384 2.542-.197 3.897-1.47 1.869-1.756 2.977-1.994 6.688-1.438 4.337.651 4.487.581 6.103-2.824 2.827-5.956 1.682-11.641-3.241-16.096-1.156-1.047-2.102-2.515-2.102-3.263 0-4.571-15.79-7.429-19.345-3.501m32.503.171c0 1.375.227 1.938.504 1.25.278-.687.278-1.812 0-2.5-.277-.687-.504-.125-.504 1.25m-107.079.583c.048 1.165.285 1.402.604.605.289-.722.253-1.585-.079-1.917-.332-.332-.568.258-.525 1.312M163 83c-.589 1.1-.845 2-.57 2s.981-.9 1.57-2c.589-1.1.845-2 .57-2s-.981.9-1.57 2M47.5 84c-1.63.701-1.688.872-.309.93.93.038 1.969-.38 2.309-.93.711-1.15.676-1.15-2 0m67.5.5c-1.69 2.036.737 2.014 3.441-.032 1.908-1.443 1.906-1.468-.127-1.468-1.138 0-2.629.675-3.314 1.5m-38 2.059c0 .857.45 1.281 1 .941.55-.34 1-1.041 1-1.559S78.55 85 78 85s-1 .702-1 1.559m42.024.044c-11.001 2.956-20.117 10.806-26.153 22.521-3.094 6.005-3.286 6.987-3.305 16.876-.018 9.323.281 11.149 2.672 16.296 3.812 8.204 12.628 16.753 20.269 19.655 11.653 4.425 25.944 4.372 34.507-.13 8.629-4.535 16.112-12.023 19.809-19.821 2.309-4.87 2.612-6.76 2.642-16.5.031-9.788-.25-11.606-2.551-16.5-3.327-7.074-11.953-16.483-17.822-19.439-9.033-4.549-20.097-5.637-30.068-2.958M131.5 89c.34.55 1.829.993 3.309.985 2.105-.012 2.364-.227 1.191-.985-1.976-1.277-5.289-1.277-4.5 0m58.959.067c-.363.586-.419 1.306-.126 1.6.717.716 2.667-.546 2.667-1.726 0-1.278-1.726-1.193-2.541.126M48.096 91.82c-2.444 4.568-7.107 19.137-8.058 25.18-2.246 14.273-.645 31.484 4.141 44.5 4.898 13.324 16.309 29.027 27.119 37.322C79.361 205.01 96.14 214 99.624 214c1.683 0 1.689-.294-.104 5.072-.814 2.435-2.131 7.266-2.925 10.736l-1.445 6.307 3.14-.307c2.965-.291 3.212-.641 4.446-6.308.718-3.3 1.583-7.706 1.922-9.791l.616-3.79 4.613.679c4.766.702 9.568 2.227 7.363 2.339-.687.034-1.25 1.188-1.25 2.563 0 2.078.478 2.5 2.833 2.5 1.559 0 3.103.269 3.431.598.329.328-1.401 3.715-3.844 7.527-3.254 5.077-4.08 7.068-3.087 7.449.745.286 4.687.386 8.761.223 7.154-.287 7.406-.382 7.406-2.797 0-2.09-.534-2.551-3.25-2.813-3.72-.359-4.028-1.635-1.25-5.187 1.076-1.375 1.966-3.007 1.978-3.628.012-.62.697-1.687 1.522-2.372.825-.685 1.5-2.04 1.5-3.011 0-1.256 1.083-1.958 3.75-2.431 2.063-.366 4.493-.882 5.401-1.147 1.317-.385 1.621.182 1.5 2.803-.149 3.232-.087 3.28 3.742 2.941 3.451-.305 3.808-.134 3.142 1.5-2.313 5.681-4.685 13.529-4.227 13.987.292.291 4.012-.316 8.268-1.35 6.431-1.562 7.794-2.243 8.067-4.035.431-2.827-.675-3.395-4.487-2.302-1.721.494-3.354.534-3.629.089-.428-.692 1.557-7.326 3.977-13.294.543-1.338.213-1.75-1.397-1.75-1.159 0-2.107-.45-2.107-1s.664-1 1.475-1c2.681 0 14.116-5.763 21.861-11.018 11.326-7.685 24.76-23.387 29.926-34.982 3.427-7.689 6.769-19.998 7.91-29.131 1.025-8.206.961-11.091-.431-19.5-1.701-10.273-4.365-19.516-7.258-25.181-2.675-5.237-2.651-3.18.039 3.481 4.768 11.804 5.887 17.997 5.934 32.831.036 11.56-.349 15.408-2.209 22.079-7.564 27.126-27.823 49.387-53.734 59.044-3.857 1.438-7.913 2.984-9.013 3.438-1.1.453-7.4 1.369-14 2.037-11.17 1.13-12.795 1.06-23.5-1.006-19.082-3.683-37.616-13.895-48.771-26.872-15.11-17.579-21.593-34.633-21.56-56.72.02-13.023 1.396-20.996 5.267-30.508C47.501 97.146 48.551 94 48.268 94c-.282 0 .056-.686.752-1.524s1.012-1.777.704-2.086c-.309-.309-1.042.335-1.628 1.43m84.592-.174c-.379.378-.688 1.516-.688 2.529 0 1.592.271 1.673 2.003.591 2.028-1.266 2.199-2.865.372-3.474-.55-.184-1.309-.024-1.687.354M117.5 94c.34.55 1.266 1 2.059 1 .793 0 1.441.525 1.441 1.167 0 .641.337.83.748.418.412-.412-.124-1.387-1.191-2.167-2.244-1.641-3.958-1.875-3.057-.418m30.57 1.691c.039.445.457 1.709.93 2.809.829 1.928.862 1.921.93-.191.038-1.205-.38-2.469-.93-2.809-.55-.34-.968-.254-.93.191m-45.741 5.078c-1.764 2.386-1.851 2.954-.623 4.101 1.779 1.662 2.986.669 1.445-1.188-1.134-1.366-.606-2.682 1.075-2.682.49 0 .614.45.274 1-.34.55-.141 1 .441 1s1.059-1.125 1.059-2.5c0-3.247-1.133-3.164-3.671.269M118 99c-.793.49-1.11 1.223-.704 1.629.405.406 1.262.213 1.904-.429 1.511-1.511.668-2.354-1.2-1.2m49 1.941c0 1.132.45 2.059 1 2.059s1-.648 1-1.441-.45-1.719-1-2.059c-.55-.34-1 .309-1 1.441m-36 .878c0 .584.43 1.329.956 1.654.526.325.717 1.364.425 2.309-.488 1.576-.439 1.573.593-.032.619-.963 2.003-1.75 3.076-1.75 1.072 0 1.95-.502 1.95-1.117 0-.657-.903-.88-2.198-.541-1.209.316-2.784.088-3.5-.506-.909-.755-1.302-.76-1.302-.017m14 .754c0 .932.68 1.442 1.667 1.25 2.509-.486 2.853-2.823.416-2.823-1.228 0-2.083.646-2.083 1.573m-24.5.427c-.782 1.266.542 1.266 2.5 0 1.293-.835 1.266-.971-.191-.985-.93-.008-1.969.435-2.309.985m-12.061 1.099c-.307.496 1.57.901 4.169.901 2.599 0 4.471-.255 4.16-.566-.997-.997-7.752-1.268-8.329-.335m-50.183 2.93c-3.41 1.371-6.248 6.81-6.252 11.981-.005 6.031 3.103 9.418 10 10.897 6.899 1.48 7.762 1.399 8.961-.841 1.435-2.682 1.528-2.62-3.323-2.234l-4.358.347-.553-3.84c-.304-2.111-.251-5.864.119-8.339l.671-4.5 5.273.045c4.22.035 5.214-.263 4.978-1.493-.488-2.531-10.88-3.887-15.516-2.023M86.5 107c-.34.55-.168 1 .382 1s1.278-.45 1.618-1c.34-.55.168-1-.382-1s-1.278.45-1.618 1m61.5 2.622c0 2.17.249 2.416 1.441 1.427.792-.657 1.194-1.837.893-2.622-.902-2.349-2.334-1.615-2.334 1.195m7.232-.622c-.687 1.1-.903 2-.481 2 .422 0 1.33-.9 2.017-2 .687-1.1.903-2 .481-2-.422 0-1.33.9-2.017 2m4.275-1.011c-.41.663-.017 1.93.875 2.821 1.349 1.35 1.615 1.375 1.603.154-.026-2.47-1.613-4.375-2.478-2.975m16.226.135c.679.684 1.486.991 1.793.683.308-.308-.247-.867-1.233-1.243-1.425-.542-1.54-.428-.56.56M82.2 109.2c-.66.66-1.164 1.898-1.121 2.75.069 1.347.155 1.353.662.05.321-.825 1.298-2.048 2.171-2.718.874-.67 1.116-1.233.538-1.25-.577-.018-1.59.508-2.25 1.168m50.3.8c-.34.55.11 1 1 1s1.34-.45 1-1c-.34-.55-.79-1-1-1-.21 0-.66.45-1 1m9.959 1.067c-.92 1.489.147 2.298 2.061 1.564.884-.339 1.327-1.07.984-1.624-.81-1.311-2.215-1.284-3.045.06m-42.709 1.095c-2.16.789-2.75 1.644-2.75 3.985 0 2.746.249 2.955 3.173 2.666 1.745-.172 3.376-.988 3.625-1.813.365-1.211.196-1.259-.873-.25-1.803 1.701-3.99 1.582-3.313-.18.301-.787 1.862-1.888 3.468-2.448 3.186-1.111 3.978-3.17 1.17-3.043-.963.043-2.987.531-4.5 1.083m57.479 1.026c.618 1.854 2.771 2.161 2.771.395 0-.87-.713-1.583-1.583-1.583-.871 0-1.406.534-1.188 1.188M77 114.727c0 .48.529 1.402 1.176 2.049.902.902.775 1.62-.543 3.077-1.508 1.666-1.531 1.972-.191 2.486 1.864.716 3.813-2.539 3.371-5.63-.293-2.051-3.813-3.88-3.813-1.982m67 .273c0 .55.675 1 1.5 1s1.5-.45 1.5-1-.675-1-1.5-1-1.5.45-1.5 1m7 .559c0 .857.45 1.281 1 .941.55-.34 1-1.041 1-1.559s-.45-.941-1-.941-1 .702-1 1.559m-24.403.285c-.346.56-.142 1.319.453 1.687 1.538.95 2.53-.351 1.246-1.635-.718-.718-1.277-.735-1.699-.052m8.312-.391c-.05.301-.134 2.01-.187 3.797-.084 2.811.266 3.293 2.591 3.566 1.478.174 2.687-.163 2.687-.75 0-.586-.9-1.066-2-1.066-2.548 0-2.623-1.756-.093-2.18 1.749-.294 1.708-.468-.5-2.117-1.324-.988-2.448-1.55-2.498-1.25M193 118c1.1 1.1 2 2.62 2 3.378 0 .757.687 1.947 1.526 2.644 1.099.912 1.476 2.934 1.347 7.226-.169 5.639-.378 6.105-3.87 8.635l-3.691 2.674 2.198 1.658c2.072 1.563 2.375 1.533 5.296-.529 4.95-3.492 8.343-13.533 6.347-18.782-1.623-4.27-6.947-8.904-10.23-8.904H191l2 2m-86.5 0c.34.55.816 1 1.059 1s.441-.45.441-1-.477-1-1.059-1-.781.45-.441 1m7.959.067c-.363.586-.419 1.306-.126 1.6.717.716 2.667-.546 2.667-1.726 0-1.278-1.726-1.193-2.541.126m71.541.642c-2.225.819-5.005 3.445-4.968 4.696.017.602.629.308 1.36-.655.731-.963 1.729-1.764 2.218-1.782.49-.017 1.764-.692 2.831-1.5 1.949-1.474 1.355-1.787-1.441-.759m-74.921 1.874c.048 1.165.285 1.402.604.605.289-.722.253-1.585-.079-1.917-.332-.332-.568.258-.525 1.312M98 123c0 .55.423 1 .941 1s1.219-.45 1.559-1c.34-.55-.084-1-.941-1S98 122.45 98 123m8.538 1.348c-1.014.742-1.523 1.867-1.132 2.5 1.026 1.66 3.278 1.417 3.987-.43 1.378-3.59.297-4.374-2.855-2.07m37.814 1.303c-.082 1.363.143 2.117.5 1.676a9.868 9.868 0 0 1 1.445-1.404c.439-.33.214-1.084-.5-1.676-1-.829-1.331-.507-1.445 1.404M162 126c0 1.1.45 2 1 2s1-.9 1-2-.45-2-1-2-1 .9-1 2m-82 .298c0 .897 1.013 2.163 2.25 2.812l2.25 1.181-1.989-2.395c-1.094-1.318-2.107-2.583-2.25-2.813-.144-.229-.261.318-.261 1.215m39.5-.298c-.34.55-.141 1 .441 1s1.059-.45 1.059-1-.198-1-.441-1-.719.45-1.059 1m6.266.825c-1.659 1.089-2.368 2.201-1.894 2.968.549.888 1.413.533 3.114-1.278 2.933-3.122 2.3-3.998-1.22-1.69m-32.587 1.865c.195 1.7 1.006 2.923 2.071 3.125 2.395.454 2.206-1.98-.321-4.144-2.029-1.737-2.065-1.716-1.75 1.019m21.166-.147c-.326.849-.322 1.813.007 2.143.865.864 3.731-1.742 3.078-2.799-.854-1.381-2.432-1.045-3.085.656M131 128.5c0 .825.45 1.5 1 1.5s1-.675 1-1.5-.45-1.5-1-1.5-1 .675-1 1.5m34.079-.823c-.043.647-.866 1.332-1.829 1.523-1.021.202-1.313.622-.702 1.007 1.515.956 3.791-.735 3.153-2.341-.331-.833-.574-.906-.622-.189M159.5 129c-.34.55-.141 1 .441 1s1.059-.45 1.059-1-.198-1-.441-1-.719.45-1.059 1m31.5.5c0 .825.45 1.5 1 1.5s1-.675 1-1.5-.45-1.5-1-1.5-1 .675-1 1.5m-72 .5c0 .55.45 1 1 1s1-.45 1-1-.45-1-1-1-1 .45-1 1m19.543-.069c-.74 1.197 1.141 2.382 2.473 1.559 1.119-.691.384-2.49-1.016-2.49-.485 0-1.141.419-1.457.931m34.451.819c-.004.963-.652 2.988-1.441 4.5-1.207 2.314-1.215 2.75-.053 2.75 1.768 0 2.163-.689 3.021-5.258.468-2.499.332-3.742-.41-3.742-.611 0-1.114.787-1.117 1.75m-74.244 1.734c-1.513 1.331-2.75 2.656-2.75 2.945 0 .289 1.18 1.298 2.621 2.242 2.491 1.632 2.688 1.627 3.95-.099 1.225-1.675 1.454-1.69 2.95-.194.892.892 2.04 1.622 2.55 1.622 1.754 0 .928-2.93-1.138-4.036-1.61-.861-2.61-.751-4.518.5-2.252 1.475-2.501 1.475-3.07-.007-.34-.887.095-2.326.968-3.199 1.308-1.307 1.859-1.36 3.137-.3.871.723 1.55.842 1.55.271 0-.787-2.402-2.372-3.332-2.197-.092.017-1.405 1.12-2.918 2.452m57.25-.425c0 .582.45.781 1 .441s1-.816 1-1.059-.45-.441-1-.441-1 .477-1 1.059m-42.75 1.437c-1.732 1.967-1.571 2.504.75 2.504 1.333 0 2-.667 2-2 0-2.328-.985-2.509-2.75-.504M123 135.5c0 1.375.45 2.5 1 2.5s1-1.125 1-2.5-.45-2.5-1-2.5-1 1.125-1 2.5m7 .381c0 1.127.86 2.509 1.91 3.071 1.718.919 1.838.754 1.196-1.65-.87-3.251-3.106-4.274-3.106-1.421m7 .06c0 1.068.394 2.184.875 2.482.481.297.875-.576.875-1.941 0-1.365-.394-2.482-.875-2.482s-.875.873-.875 1.941m10.5-.941c-.34.55.11 1 1 1s1.34-.45 1-1c-.34-.55-.79-1-1-1-.21 0-.66.45-1 1m3.733 1.999c-1.58 2.529-1.569 4.001.03 4.001.694 0 1.707 1.012 2.25 2.25 2.113 4.818 8.21 2.48 6.922-2.654-.666-2.653-2.954-3.539-3.661-1.419-.513 1.539-2.715.156-3.611-2.267-.677-1.827-.735-1.825-1.93.089M180 135.925c0 1.025 6.843 6.075 8.232 6.075 1.759 0 .592-1.827-1.502-2.353-1.248-.313-3.273-1.505-4.5-2.647-1.226-1.143-2.23-1.627-2.23-1.075m-96.048 4.19c-.953 2.303-1.004 3.573-.193 4.871.807 1.292.786 2.089-.081 3.011-.913.971-.864 1.158.219.829.941-.286 1.479-2.284 1.65-6.125.138-3.136.127-5.701-.026-5.701s-.859 1.402-1.569 3.115m27.048.444c0 .857.45 1.281 1 .941.55-.34 1-1.041 1-1.559s-.45-.941-1-.941-1 .702-1 1.559m30-.5c0 .582.45.781 1 .441s1-.816 1-1.059-.45-.441-1-.441-1 .477-1 1.059M117.5 142c-.34.55-.141 1 .441 1s1.059-.45 1.059-1-.198-1-.441-1-.719.45-1.059 1m37.5.441c0 .857.45 1.559 1 1.559s1-.423 1-.941-.45-1.219-1-1.559c-.55-.34-1 .084-1 .941m-8.75.59c-2.984 1.2-2.859 1.808.25 1.214 1.375-.263 2.5-.876 2.5-1.362 0-.485-.113-.854-.25-.82-.137.035-1.262.471-2.5.968m27.077-.335c-2.166.422-4.327 4.644-4.327 8.453 0 1.018-.506 1.739-1.125 1.601-.619-.137-1.352.375-1.63 1.139-.309.851-.067 1.119.625.691.622-.384 1.144-.109 1.162.611.021.869.478.721 1.36-.441.731-.963 2.179-1.764 3.218-1.78 1.763-.029 1.772-.099.14-1.05-.963-.561-1.75-1.447-1.75-1.97 0-1.54 3.011-1.085 3.638.55.317.825 1.54 1.507 2.719 1.515 4.349.031 5.123 1.456 5.133 9.443.01 7.403-.037 7.542-2.517 7.542-1.391 0-3.517.692-4.725 1.539-1.981 1.387-2.498 1.383-5.256-.043-2.02-1.045-3.26-2.587-3.651-4.539-.325-1.626-1.236-2.957-2.025-2.957-.789 0-1.156.45-.816 1 .67 1.084-1.763 1.404-2.799.367-.737-.736 3.593-4.367 5.207-4.367.6 0 1.092-.675 1.092-1.5 0-1.974-1.622-1.927-2.388.069-.391 1.018-1.28 1.354-2.533.956-1.167-.37-2.256-.046-2.755.82-.453.787-1.724 1.603-2.824 1.812-1.565.297-1.928 1.028-1.669 3.362.182 1.639 1.018 3.656 1.858 4.481 1.362 1.339 1.449 1.246.811-.875-.489-1.626-.365-2.16.393-1.691.635.392 1.107-.006 1.107-.934 0-.89.457-1.335 1.016-.99.559.346.693 1.152.298 1.792-1.545 2.498-.996 4.36 1.163 3.947 1.164-.222 4.64.981 7.725 2.673 6.736 3.697 11.667 3.974 15.838.89 1.628-1.203 2.96-2.586 2.96-3.071 0-.486.675-1.559 1.5-2.384.911-.911 1.5-3.36 1.5-6.241 0-4.461-.352-5.091-5.965-10.679-3.281-3.265-5.981-6.676-6-7.58-.028-1.293-2.581-3.357-3.367-2.721-.092.075-1.146.327-2.341.56M58 143.906c0 .499.9.671 2 .384 1.1-.288 2-.696 2-.907 0-.21-.9-.383-2-.383s-2 .408-2 .906m6 .094c0 .55.45 1 1 1s1-.45 1-1-.45-1-1-1-1 .45-1 1m65.553.25c-.659 2.141-.263 4.75.721 4.75.517 0 .659-.732.316-1.627-.344-.894-.112-2.244.515-3 .855-1.029.851-1.373-.014-1.373-.635 0-1.327.563-1.538 1.25m5.856 1.256c-.75 2.988-.725 3.025 2.591 3.922 2.138.578 2.277.487.964-.626-.845-.716-1.383-2.048-1.195-2.959.574-2.783-1.665-3.104-2.36-.337m-67.896 2.116c-1.808 4.329-1.866 6.089-.394 11.935.648 2.573 1.7 4.443 2.5 4.443.759 0 1.381.338 1.382.75.001.412 2.211 1.991 4.913 3.509 4.032 2.264 5.379 2.58 7.524 1.765 2.874-1.093 4.091-3.202 3.195-5.537-.505-1.316-.843-1.288-2.607.222-1.114.955-2.026 2.31-2.026 3.013 0 1.759-1.486 1.602-3.086-.326-.733-.882-2.36-1.995-3.617-2.473-1.92-.73-2.259-1.537-2.121-5.049.126-3.208-.341-4.589-2.006-5.937-2.891-2.341-2.746-4.754.33-5.526 2.995-.752 3.198-1.967.566-3.376-2.766-1.48-2.88-1.415-4.553 2.587m39.63-2.732c-.851.54-1.106 1.652-.683 2.985 1.03 3.243 3.271 2.621 3.146-.873-.114-3.22-.369-3.438-2.463-2.112m4.872-.14c.009.412.452 1.425.985 2.25.784 1.213.972 1.069.985-.75.008-1.238-.435-2.25-.985-2.25s-.993.338-.985.75m61.965.774c-1.785 2.15-.51 2.96 1.949 1.238 1.132-.793 1.761-1.739 1.398-2.102-1.032-1.032-1.976-.788-3.347.864m-56.83.426c.22.66.726 1.166 1.125 1.125 1.196-.124.964-1.495-.325-1.925-.66-.22-1.02.14-.8.8m-62.59 2.006c-.542 1.612-.436 2.585.307 2.833.623.208 1.133.937 1.133 1.62s1.125 2.299 2.5 3.591c1.375 1.292 2.5 1.806 2.5 1.143s-.634-1.449-1.408-1.746c-1.41-.541-3.16-4.138-3.843-7.897-.328-1.804-.444-1.76-1.189.456m35.556 2.794c-.066 1.282-.761 2.25-1.616 2.25-1.672 0-2.02 1.561-.55 2.469 1.267.783 3.293-3.13 2.729-5.271-.32-1.214-.48-1.057-.563.552m53.769-1c-.063.412-.029 1.575.077 2.583.106 1.009-.629 2.435-1.633 3.169-2.389 1.746-1.131 2.916 2.229 2.073 2.011-.505 2.528-1.138 2.141-2.619-.281-1.075-.082-2.22.443-2.544.581-.359.496-1.143-.216-2.001-1.265-1.525-2.855-1.87-3.041-.661M111.5 151c-.34.55.084 1 .941 1 2.109 0 1.979 2.656-.191 3.92-1.605.935-1.61 1.022-.059 1.05 2.275.041 3.125-1.573 2.384-4.527-.636-2.534-2.004-3.176-3.075-1.443m20.799.892c-.65 1.041-.908 2.166-.573 2.5 1.201 1.202 2.049.565 2.519-1.892.567-2.969-.302-3.24-1.946-.608m121.881.454c-.503 7.95-7.189 25.758-14.402 38.364-11.157 19.496-24.68 33.458-44.395 45.835-14.471 9.086-33.765 15.932-51.883 18.411l-7 .957 8.538-.393c16.825-.774 38.654-8.008 55.349-18.341 16.198-10.025 33.818-29.165 42.622-46.297 6.693-13.023 12.223-30.279 11.728-36.592-.207-2.634-.458-3.509-.557-1.944M123 153c-1.169.755-.893.973 1.25.985 1.513.008 2.75-.435 2.75-.985 0-1.264-2.043-1.264-4 0m-32 3.933c0 1.126 3.908 2.493 4.742 1.658.325-.325-.159-.591-1.075-.591-.917 0-1.667-.45-1.667-1s-.45-1-1-1-1 .42-1 .933m30.18 1.239c.176 1.194.824 2.337 1.439 2.539.706.233.94-.569.633-2.171-.59-3.087-2.522-3.43-2.072-.368M87.158 159c0 1.375.227 1.938.504 1.25.278-.687.278-1.812 0-2.5-.277-.687-.504-.125-.504 1.25m-32.79 4.02c-1.463 2.212-2.426 4.256-2.138 4.543.287.287 1.463-1.072 2.612-3.02 1.15-1.949 2.556-3.543 3.124-3.543.569 0 1.034-.45 1.034-1 0-2.172-2.104-.801-4.632 3.02m47.748-.322c-.064 1.21 1.009 3.413 2.384 4.897 1.375 1.483 2.5 3.081 2.5 3.551 0 .47.54.854 1.2.854.887 0 .907-.293.078-1.122-.617-.617-.884-1.742-.593-2.5.291-.758-.001-1.378-.649-1.378-1.609 0-3.716-2.234-4.312-4.571-.436-1.708-.505-1.677-.608.269M56 167.059c0 .582.45.781 1 .441s1-.816 1-1.059-.45-.441-1-.441-1 .477-1 1.059m3-.059c0 .55.477 1 1.059 1s.781-.45.441-1-.816-1-1.059-1-.441.45-.441 1m-6 2.621c0 .525 1.361 2.513 3.024 4.417l3.025 3.462-2.582-3.974c-3.056-4.704-3.467-5.167-3.467-3.905m39.035 2.313c-.569 1.064-.999 3.877-.956 6.25.043 2.374.316 3.724.605 3.001.289-.723 1.615-1.728 2.947-2.235 3.069-1.167 3.937-3.408 2.522-6.514-1.334-2.927-3.696-3.159-5.118-.502m45.087-1.03c-.758.48-1.069 1.373-.691 1.984 1.023 1.655 2.569 1.344 2.569-.516 0-1.339.71-1.514 4-.988 2.453.392 4 .248 4-.372 0-1.235-7.961-1.323-9.878-.108M117 172c-1.219.788-1.09.972.691.985 1.205.008 2.469-.435 2.809-.985.787-1.273-1.53-1.273-3.5 0m15.5 0c.34.55 1.068 1 1.618 1s.722-.45.382-1c-.34-.55-1.068-1-1.618-1s-.722.45-.382 1M61 173.059c0 .582.45.781 1 .441s1-.816 1-1.059-.45-.441-1-.441-1 .477-1 1.059m52-.059c-.793.49-1.11 1.223-.704 1.629.405.406 1.262.213 1.904-.429.642-.642.959-1.375.704-1.629-.254-.254-1.111-.061-1.904.429m-48.442 1.907c-.309.498.34.671 1.441.383 2.335-.611 2.63-1.29.56-1.29-.793 0-1.693.408-2.001.907M70 175.5c.685.825 1.672 1.5 2.194 1.5s.274-.675-.551-1.5c-.825-.825-1.812-1.5-2.194-1.5-.382 0-.134.675.551 1.5m82.515.781c.966 1.53 2.007 2.53 2.315 2.222.307-.307-.483-1.559-1.756-2.781l-2.315-2.222 1.756 2.781M114 177c0 .55.477 1 1.059 1s.781-.45.441-1-.816-1-1.059-1-.441.45-.441 1m-35 1c0 .55.45 1 1 1s1-.45 1-1-.45-1-1-1-1 .45-1 1m40.75-.311c-.963.252-1.75.907-1.75 1.456 0 .549-.72 1.718-1.599 2.597-1.466 1.466-1.414 1.739.618 3.273 1.855 1.399 2.035 2.016 1.097 3.768-.791 1.478-.806 2.29-.052 2.756.588.364 1.21.504 1.383.311 1.168-1.304 6.553-12.391 6.553-13.491 0-1.329-2.643-1.612-6.25-.67m35.901 3.287c.741.789.863 2.233.342 4.05-.446 1.553-.59 3.044-.321 3.313.27.269-.012 1.428-.626 2.575-.665 1.242-.725 2.086-.149 2.086 1.223 0 1.892-2.309 2.29-7.909.23-3.243-.084-4.532-1.187-4.875-1.149-.357-1.23-.179-.349.76m-22.572.692c-.043.643-.338 1.993-.655 3-.547 1.741-.518 1.744.571.044.631-.983.925-2.333.655-3-.355-.875-.514-.887-.571-.044M91 184c0 .55.45 1 1 1s1-.45 1-1-.45-1-1-1-1 .45-1 1m7 0c0 .55-.692 1-1.538 1-1.073 0-1.451.811-1.25 2.683.228 2.126-.231 2.833-2.212 3.401l-2.5.717 2.5.106c1.375.058 3.85 1 5.5 2.093 3.697 2.448 15.077 2.947 14.185.622-.291-.758-.039-1.868.56-2.467.786-.786.625-1.268-.578-1.729-.917-.352-1.667-1.267-1.667-2.033s-.906-1.393-2.014-1.393c-1.107 0-2.907-.45-4-1l-3.972-2c-1.093-.55-2.218-1-2.5-1-.283 0-.514.45-.514 1m26.667 4.667c-1.055 1.054-.777 4.147.44 4.899.745.461.887-.011.433-1.441-.568-1.79-.27-2.125 1.893-2.125 1.412 0 2.567-.45 2.567-1 0-1.112-4.286-1.38-5.333-.333m6.333.274c0 .518.45 1.219 1 1.559.55.34 1 .174 1-.368s.787-1.191 1.75-1.443c1.077-.281.692-.502-1-.573-1.512-.064-2.75.307-2.75.825m18.537 1.413c-1.63.695-2.518 1.54-1.973 1.877.546.337 2.104-.242 3.464-1.287 2.878-2.211 2.583-2.328-1.491-.59m-18.541 4.388c1.923.232 4.06.89 4.75 1.462.832.691 1.254.699 1.254.025 0-1.413-2.585-2.258-6.332-2.069l-3.168.16 3.496.422M151.5 195c-.34.55-.168 1 .382 1s1.278-.45 1.618-1c.34-.55.168-1-.382-1s-1.278.45-1.618 1m-12.7 3.124c1.426 1.27 9.125 1.672 10.076.526.7-.844-.606-1.15-4.911-1.15-3.226 0-5.55.281-5.165.624M75.396 208.75c-.297.963-.954 2.425-1.459 3.25-3.451 5.633-5.992 11.415-5.537 12.601.884 2.303 4.538 1.63 5.764-1.062.963-2.112 1.764-2.447 5.664-2.369 3.566.071 4.932-.39 6.357-2.15 2.963-3.659 2.295-6.262-2.385-9.297-4.846-3.142-7.634-3.465-8.404-.973m97.04 4.5c1.268 12.535 1.765 15.75 2.435 15.75 1.536 0 5.129-3.214 5.129-4.588 0-1.045.957-1.41 3.288-1.253 3.755.253 5.963-.78 5.517-2.581-.4-1.621-14.357-13.578-15.849-13.578-.814 0-.967 1.833-.52 6.25M78 211.059c0 .582.45.781 1 .441s1-.816 1-1.059-.45-.441-1-.441-1 .477-1 1.059m4.6 1.615c.605.454 1.385 1.501 1.732 2.326.445 1.054.564.93.4-.417-.127-1.055-.907-2.101-1.732-2.326-.965-.263-1.107-.114-.4.417m92.4.826c0 .825.45 1.5 1 1.5s1-.675 1-1.5-.45-1.5-1-1.5-1 .675-1 1.5M77 217c0 .55.45 1 1 1s1-.45 1-1-.45-1-1-1-1 .45-1 1m-3.5 1c-.34.55-.141 1 .441 1S75 218.55 75 218s-.198-1-.441-1-.719.45-1.059 1m79.083-.134c-.431.697-.513 1.537-.183 1.867.895.895 1.871-.421 1.387-1.871-.338-1.016-.574-1.016-1.204.004m-50.959 3.673c-.343.893-.595 2.15-.561 2.793.035.642.495.09 1.022-1.227.527-1.318.779-2.574.56-2.793-.219-.219-.679.333-1.021 1.227m19.189.144c.721.289 1.584.253 1.916-.079.332-.332-.258-.568-1.312-.525-1.165.048-1.402.285-.604.604m28.448 9.818c-.591 1.924-.702 3.499-.247 3.499.893 0 2.454-5.865 1.749-6.571-.236-.235-.911 1.147-1.502 3.072m-50.182-.918c.048 1.165.285 1.402.604.605.289-.722.253-1.585-.079-1.917-.332-.332-.568.258-.525 1.312M152 234.059c0 .582.45.781 1 .441s1-.816 1-1.059-.45-.441-1-.441-1 .477-1 1.059M119.5 236c-.34.55-.141 1 .441 1s1.059-.45 1.059-1-.198-1-.441-1-.719.45-1.059 1" fill="#1976D2" fill-rule="evenodd"/></svg>